<?xml version="1.0" encoding="UTF-8" standalone="no"?>
<!DOCTYPE svg PUBLIC "-//W3C//DTD SVG 1.1//EN" "http://www.w3.org/Graphics/SVG/1.1/DTD/svg11.dtd">
<svg width="100%" height="100%" viewBox="0 0 328 328" version="1.1" xmlns="http://www.w3.org/2000/svg" xmlns:xlink="http://www.w3.org/1999/xlink" xml:space="preserve" xmlns:serif="http://www.serif.com/" style="fill-rule:evenodd;clip-rule:evenodd;stroke-linejoin:round;stroke-miterlimit:2;">
    <g transform="matrix(1,0,0,1,-1841,-836)">
        <g id="Artboard7" transform="matrix(0.901653,0,0,0.901653,200.893388,749.441322)">
            <rect x="1819" y="96" width="363" height="363" style="fill:none;"/>
            <g transform="matrix(1.149338,0,0,1.149338,69.038054,-990.794114)">
                <path d="M1561.297,1196.968C1541.069,1171.215 1529,1138.756 1529,1103.5C1529,1019.885 1596.885,952 1680.5,952C1764.115,952 1832,1019.885 1832,1103.5C1832,1138.756 1819.931,1171.215 1799.703,1196.968L1561.297,1196.968ZM1774.813,1176.441L1799.191,1176.441L1799.191,1169.799L1784.054,1169.799L1784.054,1140.978L1774.813,1140.978L1774.813,1176.441ZM1686.725,1177.06C1697.465,1177.06 1702.835,1172.088 1702.835,1162.143L1702.835,1140.978L1693.594,1140.978L1693.594,1162.875C1693.594,1165.089 1693.057,1166.928 1691.983,1168.391C1690.909,1169.855 1689.157,1170.587 1686.725,1170.587C1684.253,1170.587 1682.429,1169.846 1681.254,1168.363C1680.078,1166.881 1679.491,1164.826 1679.491,1162.2L1679.491,1140.978L1670.25,1140.978L1670.25,1161.862C1670.25,1167.04 1671.719,1170.868 1674.658,1173.345C1677.596,1175.822 1681.618,1177.06 1686.725,1177.06ZM1649.702,1176.441L1658.943,1176.441L1658.943,1147.621L1669.399,1147.621L1669.399,1140.978L1639.489,1140.978L1639.489,1147.621L1649.702,1147.621L1649.702,1176.441ZM1592.178,1119.655L1612.311,1119.655L1612.311,1039.456L1595.22,1039.456L1571.177,1049.649L1575.812,1063.462L1592.178,1056.22L1592.178,1119.655ZM1603.925,1176.441L1613.591,1176.441L1616.205,1168.842L1629.094,1168.842L1631.708,1176.441L1641.495,1176.441L1627.695,1140.978L1617.847,1140.978L1603.925,1176.441ZM1618.212,1162.65L1619.671,1158.372C1620.157,1156.908 1620.664,1155.398 1621.19,1153.841C1621.717,1152.283 1622.183,1150.867 1622.589,1149.591L1622.71,1149.591C1623.075,1150.904 1623.511,1152.349 1624.017,1153.925C1624.524,1155.501 1625.02,1156.983 1625.507,1158.372L1626.966,1162.65L1618.212,1162.65ZM1691.973,1079.287C1691.973,1069.453 1690.38,1061.495 1687.194,1055.416C1684.007,1049.336 1679.686,1044.888 1674.23,1042.072C1668.775,1039.255 1662.571,1037.847 1655.618,1037.847C1647.894,1037.847 1641.303,1039.658 1635.848,1043.279C1630.392,1046.9 1626.216,1051.817 1623.319,1058.031C1620.422,1064.245 1618.974,1071.33 1618.974,1079.287C1618.974,1087.155 1620.229,1094.241 1622.74,1100.544C1625.25,1106.847 1629.209,1111.832 1634.617,1115.497C1640.024,1119.163 1646.976,1120.996 1655.474,1120.996C1663.488,1120.996 1670.199,1119.163 1675.606,1115.497C1681.014,1111.832 1685.093,1106.847 1687.845,1100.544C1690.597,1094.241 1691.973,1087.155 1691.973,1079.287ZM1691.973,1079.287C1691.973,1087.155 1693.229,1094.241 1695.739,1100.544C1698.25,1106.847 1702.209,1111.832 1707.616,1115.497C1713.023,1119.163 1719.976,1120.996 1728.473,1120.996C1736.488,1120.996 1743.198,1119.163 1748.606,1115.497C1754.013,1111.832 1758.093,1106.847 1760.845,1100.544C1763.597,1094.241 1764.973,1087.155 1764.973,1079.287C1764.973,1069.453 1763.38,1061.495 1760.193,1055.416C1757.007,1049.336 1752.685,1044.888 1747.23,1042.072C1741.774,1039.255 1735.57,1037.847 1728.618,1037.847C1720.893,1037.847 1714.303,1039.658 1708.847,1043.279C1703.392,1046.9 1699.215,1051.817 1696.319,1058.031C1693.422,1064.245 1691.973,1071.33 1691.973,1079.287ZM1655.618,1107.183C1652.915,1107.183 1650.38,1106.356 1648.014,1104.702C1645.649,1103.047 1643.717,1100.186 1642.221,1096.118C1640.724,1092.05 1639.976,1086.44 1639.976,1079.287C1639.976,1072.135 1640.724,1066.569 1642.221,1062.591C1643.717,1058.612 1645.649,1055.818 1648.014,1054.209C1650.38,1052.599 1652.915,1051.795 1655.618,1051.795C1660.157,1051.795 1663.85,1053.873 1666.699,1058.031C1669.547,1062.188 1670.972,1069.274 1670.972,1079.287C1670.972,1089.301 1669.547,1096.454 1666.699,1100.745C1663.85,1105.037 1660.157,1107.183 1655.618,1107.183ZM1728.618,1107.183C1725.914,1107.183 1723.379,1106.356 1721.014,1104.702C1718.648,1103.047 1716.717,1100.186 1715.22,1096.118C1713.723,1092.05 1712.975,1086.44 1712.975,1079.287C1712.975,1072.135 1713.723,1066.569 1715.22,1062.591C1716.717,1058.612 1718.648,1055.818 1721.014,1054.209C1723.379,1052.599 1725.914,1051.795 1728.618,1051.795C1733.156,1051.795 1736.85,1053.873 1739.698,1058.031C1742.547,1062.188 1743.971,1069.274 1743.971,1079.287C1743.971,1089.301 1742.547,1096.454 1739.698,1100.745C1736.85,1105.037 1733.156,1107.183 1728.618,1107.183ZM1569.942,1176.441L1578.453,1176.441L1578.453,1165.183C1578.453,1162.931 1578.433,1160.708 1578.393,1158.513C1578.352,1156.317 1578.23,1154.056 1578.028,1151.73L1578.149,1151.73C1579,1154.019 1580.034,1156.195 1581.25,1158.259C1582.466,1160.323 1583.803,1162.35 1585.262,1164.339L1594.138,1176.441L1602.649,1176.441L1602.649,1140.978L1594.138,1140.978L1594.138,1151.899C1594.138,1154.15 1594.158,1156.421 1594.199,1158.71C1594.239,1160.999 1594.361,1163.25 1594.563,1165.464L1594.442,1165.464C1593.672,1163.701 1592.588,1161.684 1591.189,1159.413C1589.791,1157.143 1588.342,1154.957 1586.843,1152.856L1578.453,1140.978L1569.942,1140.978L1569.942,1176.441ZM1773.986,1077.984L1778.631,1077.984L1800.945,1042.639L1796.301,1042.639L1773.986,1077.984ZM1777.158,1060.731C1779.084,1060.731 1780.717,1060.32 1782.057,1059.499C1783.397,1058.677 1784.407,1057.576 1785.087,1056.195C1785.766,1054.814 1786.106,1053.302 1786.106,1051.659C1786.106,1050.086 1785.757,1048.609 1785.059,1047.228C1784.36,1045.847 1783.36,1044.737 1782.057,1043.898C1780.754,1043.059 1779.159,1042.639 1777.271,1042.639C1775.383,1042.639 1773.779,1043.059 1772.457,1043.898C1771.136,1044.737 1770.116,1045.838 1769.399,1047.202C1768.682,1048.565 1768.323,1050.051 1768.323,1051.659C1768.323,1053.302 1768.663,1054.814 1769.342,1056.195C1770.022,1057.576 1771.023,1058.677 1772.344,1059.499C1773.666,1060.32 1775.27,1060.731 1777.158,1060.731ZM1777.158,1056.641C1776.063,1056.641 1775.289,1056.143 1774.836,1055.146C1774.383,1054.15 1774.156,1052.987 1774.156,1051.659C1774.156,1050.47 1774.402,1049.413 1774.893,1048.486C1775.383,1047.56 1776.176,1047.097 1777.271,1047.097C1778.404,1047.097 1779.187,1047.577 1779.622,1048.539C1780.056,1049.5 1780.273,1050.54 1780.273,1051.659C1780.273,1053.127 1780.027,1054.325 1779.537,1055.251C1779.046,1056.177 1778.253,1056.641 1777.158,1056.641ZM1797.263,1078.508C1799.227,1078.508 1800.869,1078.097 1802.191,1077.276C1803.512,1076.454 1804.513,1075.353 1805.192,1073.972C1805.872,1072.591 1806.212,1071.062 1806.212,1069.384C1806.212,1067.775 1805.862,1066.29 1805.164,1064.926C1804.465,1063.563 1803.465,1062.461 1802.162,1061.622C1800.86,1060.783 1799.283,1060.364 1797.433,1060.364C1795.545,1060.364 1793.931,1060.783 1792.591,1061.622C1791.251,1062.461 1790.222,1063.563 1789.504,1064.926C1788.787,1066.29 1788.428,1067.775 1788.428,1069.384C1788.428,1071.062 1788.768,1072.591 1789.448,1073.972C1790.127,1075.353 1791.128,1076.454 1792.449,1077.276C1793.771,1078.097 1795.376,1078.508 1797.263,1078.508ZM1797.263,1074.47C1796.131,1074.47 1795.357,1073.963 1794.941,1072.949C1794.526,1071.936 1794.318,1070.747 1794.318,1069.384C1794.318,1068.055 1794.564,1066.893 1795.055,1065.896C1795.545,1064.9 1796.338,1064.402 1797.433,1064.402C1798.528,1064.402 1799.293,1064.9 1799.727,1065.896C1800.161,1066.893 1800.378,1068.055 1800.378,1069.384C1800.378,1070.852 1800.133,1072.067 1799.642,1073.028C1799.151,1073.989 1798.358,1074.47 1797.263,1074.47ZM1675.46,1016.394C1676.518,1016.391 1676.613,1016.726 1677.335,1015.948C1686.792,1005.779 1713.445,997.792 1713.626,999.276C1713.787,1000.599 1707.964,1002.318 1707.429,1002.476C1691.421,1007.2 1678.458,1020.326 1682.802,1022.479C1700.268,1031.136 1711.221,1017.935 1714.65,1014.459C1729.207,999.703 1729.746,1000.284 1730.938,998.936C1734.252,995.189 1705.291,989.076 1692.478,995.031C1678.674,1001.445 1677.706,1009.087 1675.46,1016.394ZM1658.899,988.611C1665.923,986.727 1681.264,998.182 1684.77,996.093C1688.811,993.686 1691.593,993.284 1688.285,989.89C1672.669,973.871 1638.019,984.208 1639.96,987.277C1640.918,988.791 1641.898,987.79 1656.175,1002.727C1668.821,1015.959 1673.551,1013.498 1673.928,1012.476C1676.196,1006.328 1676.122,1006.345 1679.658,1000.858C1682.374,996.641 1659.355,989.894 1658.653,989.576L1658.899,988.611ZM1745.511,1176.441L1748.125,1168.842L1761.013,1168.842L1763.627,1176.441L1773.415,1176.441L1759.615,1140.978L1749.767,1140.978L1736.537,1174.678L1728.489,1162.143C1729.503,1161.73 1730.566,1161.111 1731.681,1160.286C1732.795,1159.46 1733.748,1158.372 1734.538,1157.021C1735.329,1155.67 1735.724,1154.038 1735.724,1152.124C1735.724,1150.06 1735.217,1148.193 1734.204,1146.523C1733.191,1144.853 1731.701,1143.511 1729.736,1142.498C1727.77,1141.485 1725.308,1140.978 1722.349,1140.978L1707.151,1140.978L1707.151,1176.441L1716.392,1176.441L1716.392,1163.663L1720.222,1163.663L1727.03,1176.441L1745.511,1176.441ZM1750.131,1162.65L1751.591,1158.372C1752.077,1156.908 1752.583,1155.398 1753.11,1153.841C1753.637,1152.283 1754.103,1150.867 1754.509,1149.591L1754.63,1149.591C1754.995,1150.904 1755.431,1152.349 1755.937,1153.925C1756.444,1155.501 1756.94,1156.983 1757.427,1158.372L1758.886,1162.65L1750.131,1162.65ZM1716.392,1157.19L1716.392,1147.395L1720.1,1147.395C1722.086,1147.395 1723.606,1147.827 1724.659,1148.69C1725.713,1149.553 1726.24,1150.717 1726.24,1152.18C1726.24,1153.906 1725.592,1155.173 1724.295,1155.98C1722.998,1156.786 1721.296,1157.19 1719.188,1157.19L1716.392,1157.19ZM1790.673,1207.449C1786.535,1211.833 1782.138,1215.97 1777.508,1219.836L1583.492,1219.836C1578.862,1215.97 1574.465,1211.833 1570.327,1207.449L1790.673,1207.449ZM1763.369,1230.317C1739.55,1245.922 1711.077,1255 1680.5,1255C1649.923,1255 1621.45,1245.922 1597.631,1230.317L1763.369,1230.317Z" style="fill:rgb(172,139,73);"/>
            </g>
        </g>
    </g>
</svg>
