<?xml version="1.0" encoding="UTF-8" standalone="no"?>
<!DOCTYPE svg PUBLIC "-//W3C//DTD SVG 1.1//EN" "http://www.w3.org/Graphics/SVG/1.1/DTD/svg11.dtd">
<svg width="100%" height="100%" viewBox="0 0 446 270" version="1.1" xmlns="http://www.w3.org/2000/svg" xmlns:xlink="http://www.w3.org/1999/xlink" xml:space="preserve" xmlns:serif="http://www.serif.com/" style="fill-rule:evenodd;clip-rule:evenodd;stroke-linejoin:round;stroke-miterlimit:2;">
    <g transform="matrix(1,0,0,1,-533.152132,-447.766948)">
        <g id="Artboard11" transform="matrix(0.97807,0,0,0.960854,28.467922,-1.912768)" fill="#ac8b49">
            <rect x="516" y="468" width="456" height="281" style="fill:none;"/>
            <g transform="matrix(11.812935,0,0,12.024593,-4543.081047,-9433.215266)">
                <g transform="matrix(1.18,0,0,1,-77.044735,0)">
                    <g transform="matrix(24,0,0,24,460.834305,839.334841)">
                    </g>
                    <text x="428.026px" y="839.335px" style="font-family:'MuktaMahee-ExtraBold', 'Mukta Mahee';font-weight:800;font-size:24px;">110</text>
                </g>
            </g>
            <g transform="matrix(2.273467,0,0,2.314202,-261.098401,-1377.385163)">
                <g transform="matrix(24,0,0,24,500.656234,911.921276)">
                </g>
                <text x="389.32px" y="911.921px" style="font-family:'MuktaMahee-ExtraBold', 'Mukta Mahee';font-weight:800;font-size:24px;">C<tspan x="404.104px 420.76px 433.096px 451.144px 466.144px 473.968px 487.528px " y="911.921px 911.921px 911.921px 911.921px 911.921px 911.921px 911.921px ">ALORIES</tspan></text>
            </g>
        </g>
    </g>
</svg>
