<?xml version="1.0" encoding="UTF-8" standalone="no"?>
<!DOCTYPE svg PUBLIC "-//W3C//DTD SVG 1.1//EN" "http://www.w3.org/Graphics/SVG/1.1/DTD/svg11.dtd">
<svg width="100%" height="100%" viewBox="0 0 325 270" version="1.1" xmlns="http://www.w3.org/2000/svg" xmlns:xlink="http://www.w3.org/1999/xlink" xml:space="preserve" xmlns:serif="http://www.serif.com/" style="fill-rule:evenodd;clip-rule:evenodd;stroke-linejoin:round;stroke-miterlimit:2;">
    <g transform="matrix(1,0,0,1,-31,-442)">
        <rect id="Artboard10" x="31" y="442" width="325" height="270" style="fill:none;"/>
        <g id="Artboard101" serif:id="Artboard10" fill="#ac8b49">
            <g transform="matrix(11.919794,0,0,11.919794,-5064.295595,-9375.170584)">
                <g transform="matrix(1.18,0,0,1,-77.044735,0)">
                    <g transform="matrix(24,0,0,24,447.250305,839.334841)">
                    </g>
                    <text x="428.026px" y="839.335px" style="font-family:'MuktaMahee-ExtraBold', 'Mukta Mahee';font-weight:800;font-size:24px;">2<tspan x="437.578px " y="839.335px ">1</tspan></text>
                </g>
            </g>
            <g transform="matrix(2.709603,0,0,2.709603,-712.370846,-1745.243252)">
                <g transform="matrix(1.16,0,0,1,-59.708597,0)">
                    <g transform="matrix(24,0,0,24,387.581072,877.830098)">
                    </g>
                    <text x="373.179px" y="877.83px" style="font-family:'AndaleMono', 'Andale Mono', monospace;font-size:24px;">G</text>
                </g>
            </g>
            <g transform="matrix(2.266944,0,0,2.266944,-761.747064,-1291.557058)">
                <path d="M374.931,877.83L374.931,862.71L380.043,862.71C381.739,862.71 383.099,863.11 384.123,863.91C385.147,864.71 385.659,865.846 385.659,867.318C385.659,868.438 385.399,869.358 384.879,870.078C384.359,870.798 383.651,871.334 382.755,871.686C381.859,872.038 380.859,872.214 379.755,872.214L377.859,872.214L377.859,877.83L374.931,877.83ZM377.859,869.934L379.203,869.934C379.843,869.934 380.423,869.862 380.943,869.718C381.463,869.574 381.875,869.318 382.179,868.95C382.483,868.582 382.635,868.07 382.635,867.414C382.635,866.55 382.339,865.926 381.747,865.542C381.155,865.158 380.443,864.966 379.611,864.966L377.859,864.966L377.859,869.934Z" style="fill-rule:nonzero;"/>
                <path d="M389.091,877.83L389.091,862.71L394.563,862.71C395.667,862.71 396.591,862.914 397.335,863.322C398.079,863.73 398.643,864.282 399.027,864.978C399.411,865.674 399.603,866.462 399.603,867.342C399.603,868.142 399.447,868.826 399.135,869.394C398.823,869.962 398.439,870.426 397.983,870.786C397.527,871.146 397.067,871.422 396.603,871.614L400.419,877.83L397.083,877.83L393.963,872.142L391.971,872.142L391.971,877.83L389.091,877.83ZM391.971,869.862L393.411,869.862C394.323,869.862 395.079,869.67 395.679,869.286C396.279,868.902 396.579,868.278 396.579,867.414C396.579,866.614 396.335,866.006 395.847,865.59C395.359,865.174 394.667,864.966 393.771,864.966L391.971,864.966L391.971,869.862Z" style="fill-rule:nonzero;"/>
                <path d="M410.115,878.07C408.707,878.07 407.451,877.77 406.347,877.17C405.243,876.57 404.375,875.69 403.743,874.53C403.111,873.37 402.795,871.95 402.795,870.27C402.795,868.638 403.119,867.238 403.767,866.07C404.415,864.902 405.299,864.006 406.419,863.382C407.539,862.758 408.803,862.446 410.211,862.446C411.619,862.446 412.875,862.75 413.979,863.358C415.083,863.966 415.951,864.85 416.583,866.01C417.215,867.17 417.531,868.59 417.531,870.27C417.531,871.918 417.207,873.322 416.559,874.482C415.911,875.642 415.027,876.53 413.907,877.146C412.787,877.762 411.523,878.07 410.115,878.07ZM410.211,875.814C410.995,875.814 411.703,875.61 412.335,875.202C412.967,874.794 413.471,874.182 413.847,873.366C414.223,872.55 414.411,871.518 414.411,870.27C414.411,868.974 414.215,867.918 413.823,867.102C413.431,866.286 412.911,865.682 412.263,865.29C411.615,864.898 410.899,864.702 410.115,864.702C409.331,864.702 408.623,864.906 407.991,865.314C407.359,865.722 406.855,866.338 406.479,867.162C406.103,867.986 405.915,869.022 405.915,870.27C405.915,871.518 406.111,872.55 406.503,873.366C406.895,874.182 407.415,874.794 408.063,875.202C408.711,875.61 409.427,875.814 410.211,875.814Z" style="fill-rule:nonzero;"/>
                <path d="M424.131,877.83L424.131,865.062L419.787,865.062L419.787,862.71L431.475,862.71L431.475,865.062L427.059,865.062L427.059,877.83L424.131,877.83Z" style="fill-rule:nonzero;"/>
                <path d="M434.451,877.83L434.451,862.71L444.051,862.71L444.051,865.014L437.379,865.014L437.379,868.83L443.427,868.83L443.427,871.11L437.379,871.11L437.379,875.526L444.123,875.526L444.123,877.83L434.451,877.83Z" style="fill-rule:nonzero;"/>
                <rect x="447.747" y="862.71" width="2.928" height="15.12" style="fill-rule:nonzero;"/>
                <path d="M455.187,877.83L455.187,862.71L457.827,862.71L462.915,870.03C463.331,870.654 463.743,871.298 464.151,871.962C464.559,872.626 464.883,873.238 465.123,873.798L465.171,873.798C465.107,873.046 465.067,872.286 465.051,871.518C465.035,870.75 465.027,869.982 465.027,869.214L465.027,862.71L467.811,862.71L467.811,877.83L465.171,877.83L459.987,870.534C459.587,869.926 459.203,869.298 458.835,868.65C458.467,868.002 458.139,867.334 457.851,866.646L457.803,866.646C457.867,867.478 457.907,868.294 457.923,869.094C457.939,869.894 457.947,870.702 457.947,871.518L457.947,877.83L455.187,877.83Z" style="fill-rule:nonzero;"/>
            </g>
        </g>
    </g>
</svg>
