<?xml version="1.0" encoding="UTF-8" standalone="no"?>
<!DOCTYPE svg PUBLIC "-//W3C//DTD SVG 1.1//EN" "http://www.w3.org/Graphics/SVG/1.1/DTD/svg11.dtd">
<svg width="100%" height="100%" viewBox="0 0 337 270" version="1.1" xmlns="http://www.w3.org/2000/svg" xmlns:xlink="http://www.w3.org/1999/xlink" xml:space="preserve" xmlns:serif="http://www.serif.com/" style="fill-rule:evenodd;clip-rule:evenodd;stroke-linejoin:round;stroke-miterlimit:2;">
    <g transform="matrix(1,0,0,1,-1065,-494)">
        <g id="Artboard12" transform="matrix(1,0,0,0.967742,0,15.935484)" fill="#ac8b49">
            <rect x="1065" y="494" width="337" height="279" style="fill:none;"/>
            <g transform="matrix(11.919794,0,0,12.31712,-3977.674826,-9648.845857)">
                <g transform="matrix(1.18,0,0,1,-77.044735,0)">
                    <g transform="matrix(24,0,0,24,439.258305,839.334841)">
                    </g>
                    <text x="428.026px" y="839.335px" style="font-family:'MuktaMahee-ExtraBold', 'Mukta Mahee';font-weight:800;font-size:24px;">2</text>
                </g>
            </g>
            <g transform="matrix(2.709603,0,0,2.799923,273.68122,-1763.936514)">
                <g transform="matrix(1.16,0,0,1,-59.708597,0)">
                    <g transform="matrix(24,0,0,24,387.581072,877.830098)">
                    </g>
                    <text x="373.179px" y="877.83px" style="font-family:'AndaleMono', 'Andale Mono', monospace;font-size:24px;">G</text>
                </g>
            </g>
            <g transform="matrix(2.22361,0,0,2.297731,228.062997,-1337.975472)">
                <g transform="matrix(24,0,0,24,514.336234,911.921276)">
                </g>
                <text x="389.32px" y="911.921px" style="font-family:'MuktaMahee-ExtraBold', 'Mukta Mahee';font-weight:800;font-size:24px;">N<tspan x="406.408px 419.968px 433.24px 439.816px 454.6px 471.256px 486.256px 501.208px " y="911.921px 911.921px 911.921px 911.921px 911.921px 911.921px 911.921px 911.921px ">ET CARBS</tspan></text>
            </g>
        </g>
    </g>
</svg>
