<svg viewBox="0 0 615 360" xmlns="http://www.w3.org/2000/svg">
  <g transform="matrix(0.985577,0,0,0.952381,-83.774038,-63.809524)">
    <g transform="matrix(1.014634,0,0,1.05,-10.37561,-22.25)">
      <path d="M107,215C106.954,214.531 106.837,147.834 107,147C111.742,122.71 131.435,102.761 160,96C160.202,95.952 246.813,95.827 248,96C268.059,98.922 296.919,118.808 302,146C302.039,146.208 303.158,215.352 303,216C296.911,240.994 275,251 275,251C275,251 298.896,259.104 305,286C305.052,286.23 305.029,382.836 305,383C299.984,411 274.702,433.099 252,436C251.477,436.067 159.729,437.155 159,437C119.827,428.653 106.827,397.347 106,384C105.977,383.628 105.974,285.234 106,285C108.467,262.467 135,251 135,251C135,251 109.25,237.75 107,215ZM229,162.737C229,161.226 227.774,160 226.263,160L183.737,160C182.226,160 181,161.226 181,162.737L181,214.263C181,215.774 182.226,217 183.737,217L226.263,217C227.774,217 229,215.774 229,214.263L229,162.737ZM231,295.553C231,291.936 228.064,289 224.447,289L185.553,289C181.936,289 179,291.936 179,295.553L179,366.447C179,370.064 181.936,373 185.553,373L224.447,373C228.064,373 231,370.064 231,366.447L231,295.553Z" fill="#ac8b49"/>
      <path d="M338,148C341.862,126.582 361.022,101.642 392,95.911C393.126,95.703 479.203,95.855 480,95.911C504.965,97.677 528.016,117.62 537,143C537.217,143.614 538.029,319.691 538,320C535.417,347.54 508.25,371.372 485,375C484.094,375.141 392.755,375.079 392,375C361.956,371.867 340.105,344.221 338,324C337.833,322.392 337.89,148.611 338,148ZM463,165.404C463,162.974 461.026,161 458.596,161L416.404,161C413.974,161 412,162.974 412,165.404L412,306.596C412,309.026 413.974,311 416.404,311L458.596,311C461.026,311 463,309.026 463,306.596L463,165.404Z" fill="#ac8b49"/>
      <path d="M560,169L585,100L660,100L660,431L586,432L585,169L560,169Z" fill="#ac8b49"/>
      <g transform="matrix(0.774815,0,0,0.774815,54.038672,70.800238)">
        <path d="M360.631,457.868L368.048,457.868L368.048,442.245L368.189,442.245L379.942,457.868L386.184,457.868L386.184,431.093L378.767,431.093L378.767,446.55L378.625,446.55L366.933,431.093L360.631,431.093L360.631,457.868Z" fill="#ac8b49"/>
        <path d="M409.617,458.35C417.297,458.35 422.221,454.38 422.221,448.368L422.221,431.093L414.784,431.093L414.784,447.718C414.784,450.836 412.961,452.71 409.637,452.71C406.294,452.71 404.47,450.836 404.47,447.718L404.47,431.093L397.033,431.093L397.033,448.368C397.033,454.398 401.998,458.35 409.617,458.35Z" fill="#ac8b49"/>
        <path d="M439.86,457.868L447.276,457.868L447.276,436.567L455.341,436.567L455.341,431.093L431.795,431.093L431.795,436.567L439.86,436.567L439.86,457.868Z" transform="translate(-1.291,0)" fill="#ac8b49"/>
        <path d="M464.914,457.868L472.351,457.868L472.351,448.646L476.14,448.646L481.166,457.868L489.514,457.868L483.658,447.626C486.698,446.42 488.643,443.451 488.643,440.018L488.643,439.981C488.643,434.303 484.651,431.093 477.579,431.093L464.914,431.093L464.914,457.868ZM472.351,443.711L472.351,436.233L476.708,436.233C479.322,436.233 481.065,437.717 481.065,439.963L481.065,440C481.065,442.263 479.383,443.711 476.748,443.711L472.351,443.711Z" transform="translate(-1.291,0)" fill="#ac8b49"/>
        <rect x="498.804" y="431.093" width="7.437" height="26.774" transform="translate(1.291,0)" fill="#ac8b49"/>
        <path d="M523.879,457.868L531.296,457.868L531.296,436.567L539.361,436.567L539.361,431.093L515.814,431.093L515.814,436.567L523.879,436.567L523.879,457.868Z" fill="#ac8b49"/>
        <rect x="548.934" y="431.093" width="7.437" height="26.774" fill="#ac8b49"/>
        <path d="M580.838,458.35C589.754,458.35 595.286,453.025 595.286,444.49L595.286,444.453C595.286,435.936 589.734,430.611 580.838,430.611C572.003,430.611 566.41,435.936 566.41,444.453L566.41,444.49C566.41,453.025 571.962,458.35 580.838,458.35ZM580.838,452.71C576.664,452.71 573.989,449.574 573.989,444.49L573.989,444.453C573.989,439.369 576.684,436.252 580.838,436.252C585.033,436.252 587.728,439.387 587.728,444.453L587.728,444.49C587.728,449.518 585.093,452.71 580.838,452.71Z" fill="#ac8b49"/>
        <path d="M605.346,457.868L612.762,457.868L612.762,442.245L612.904,442.245L624.657,457.868L630.898,457.868L630.898,431.093L623.482,431.093L623.482,446.55L623.34,446.55L611.648,431.093L605.346,431.093L605.346,457.868Z" transform="translate(-1.291,0)" fill="#ac8b49"/>
      </g>
      <rect x="333" y="399" width="208.868" height="1" fill="#ac8b49"/>
      <rect x="333.514" y="431" width="208.868" height="1" fill="#ac8b49"/>
      <g transform="matrix(0.476022,0,0,0.513372,456.629797,-116.493119)">
        <path d="M464.914,457.868L472.351,457.868L472.351,448.646L476.14,448.646L481.166,457.868L489.514,457.868L483.658,447.626C486.698,446.42 488.643,443.451 488.643,440.018L488.643,439.981C488.643,434.303 484.651,431.093 477.579,431.093L464.914,431.093L464.914,457.868ZM472.351,443.711L472.351,436.233L476.708,436.233C479.322,436.233 481.065,437.717 481.065,439.963L481.065,440C481.065,442.263 479.383,443.711 476.748,443.711L472.351,443.711Z" fill="#ac8b49"/>
      </g>
      <g transform="matrix(0.96944,0,0,0.96944,21.667328,4.082817)">
        <path d="M683,98C690.175,98 696,103.825 696,111C696,118.175 690.175,124 683,124C675.825,124 670,118.175 670,111C670,103.825 675.825,98 683,98ZM683,100.374C677.135,100.374 672.374,105.135 672.374,111C672.374,116.865 677.135,121.626 683,121.626C688.865,121.626 693.626,116.865 693.626,111C693.626,105.135 688.865,100.374 683,100.374Z" fill="#ac8b49"/>
      </g>
    </g>
  </g>
</svg>
