<?xml version="1.0" encoding="UTF-8" standalone="no"?>
<!DOCTYPE svg PUBLIC "-//W3C//DTD SVG 1.1//EN" "http://www.w3.org/Graphics/SVG/1.1/DTD/svg11.dtd">
<svg width="100%" height="100%" viewBox="0 0 1771 195" version="1.1" xmlns="http://www.w3.org/2000/svg" xmlns:xlink="http://www.w3.org/1999/xlink" xml:space="preserve" xmlns:serif="http://www.serif.com/" style="fill-rule:evenodd;clip-rule:evenodd;stroke-linejoin:round;stroke-miterlimit:2;">
    <g transform="matrix(1,0,0,1,-674,-1400)">
        <g id="Artboard2" transform="matrix(1,0,0,1,268,1783)" fill="#ac8b49">
            <rect x="406" y="-383" width="1771" height="195" style="fill:none;"/>
            <g transform="matrix(3.369152,0,0,3.369152,-2026.776198,-4634.611713)">
                <path d="M726.454,1293.219L726.454,1268.548L736.663,1268.548C739.564,1268.548 741.876,1269.129 743.599,1270.291C745.322,1271.452 746.183,1273.038 746.183,1275.049C746.183,1276.041 745.925,1276.902 745.408,1277.633C744.891,1278.364 744.252,1278.952 743.491,1279.395C742.73,1279.839 741.962,1280.14 741.186,1280.296C742.766,1280.557 744.13,1281.164 745.279,1282.117C746.427,1283.07 747.002,1284.434 747.002,1286.209C747.002,1287.567 746.571,1288.774 745.71,1289.832C744.848,1290.889 743.627,1291.718 742.048,1292.319C740.469,1292.919 738.602,1293.219 736.448,1293.219L726.454,1293.219ZM733.002,1278.26L735.63,1278.26C736.864,1278.26 737.812,1277.999 738.473,1277.477C739.133,1276.954 739.463,1276.289 739.463,1275.479C739.463,1273.835 738.2,1273.012 735.673,1273.012L733.002,1273.012L733.002,1278.26ZM733.002,1288.755L735.543,1288.755C736.951,1288.755 738.092,1288.52 738.968,1288.05C739.844,1287.58 740.282,1286.784 740.282,1285.661C740.282,1284.617 739.851,1283.86 738.99,1283.39C738.128,1282.92 736.994,1282.685 735.586,1282.685L733.002,1282.685L733.002,1288.755Z" style="fill-rule:nonzero;"/>
                <path d="M746.916,1293.219L756.78,1268.548L763.759,1268.548L773.537,1293.219L766.602,1293.219L764.75,1287.933L755.617,1287.933L753.765,1293.219L746.916,1293.219ZM757.039,1283.625L763.242,1283.625L762.208,1280.649C761.863,1279.683 761.512,1278.651 761.153,1277.555C760.794,1276.458 760.485,1275.453 760.226,1274.54L760.14,1274.54C759.853,1275.427 759.523,1276.413 759.15,1277.496C758.776,1278.58 758.417,1279.63 758.073,1280.649L757.039,1283.625Z" style="fill-rule:nonzero;"/>
                <path d="M774.743,1293.219L774.743,1268.548L780.774,1268.548L786.719,1276.811C787.781,1278.273 788.808,1279.794 789.799,1281.373C790.79,1282.953 791.558,1284.356 792.103,1285.583L792.19,1285.583C792.046,1284.043 791.96,1282.476 791.931,1280.884C791.902,1279.291 791.888,1277.712 791.888,1276.145L791.888,1268.548L797.919,1268.548L797.919,1293.219L791.888,1293.219L785.599,1284.8C784.565,1283.416 783.617,1282.006 782.756,1280.57C781.894,1279.134 781.162,1277.62 780.559,1276.028L780.473,1276.028C780.616,1277.646 780.702,1279.219 780.731,1280.747C780.76,1282.274 780.774,1283.821 780.774,1285.387L780.774,1293.219L774.743,1293.219Z" style="fill-rule:nonzero;"/>
                <path d="M799.039,1293.219L808.903,1268.548L815.882,1268.548L825.66,1293.219L818.725,1293.219L816.873,1287.933L807.74,1287.933L805.888,1293.219L799.039,1293.219ZM809.162,1283.625L815.365,1283.625L814.331,1280.649C813.986,1279.683 813.635,1278.651 813.276,1277.555C812.917,1276.458 812.608,1275.453 812.35,1274.54L812.263,1274.54C811.976,1275.427 811.646,1276.413 811.273,1277.496C810.899,1278.58 810.54,1279.63 810.196,1280.649L809.162,1283.625Z" style="fill-rule:nonzero;"/>
                <path d="M826.866,1293.219L826.866,1268.548L832.897,1268.548L838.842,1276.811C839.904,1278.273 840.931,1279.794 841.922,1281.373C842.913,1282.953 843.681,1284.356 844.226,1285.583L844.313,1285.583C844.169,1284.043 844.083,1282.476 844.054,1280.884C844.025,1279.291 844.011,1277.712 844.011,1276.145L844.011,1268.548L850.042,1268.548L850.042,1293.219L844.011,1293.219L837.722,1284.8C836.688,1283.416 835.74,1282.006 834.879,1280.57C834.017,1279.134 833.285,1277.62 832.682,1276.028L832.596,1276.028C832.739,1277.646 832.825,1279.219 832.854,1280.747C832.883,1282.274 832.897,1283.821 832.897,1285.387L832.897,1293.219L826.866,1293.219Z" style="fill-rule:nonzero;"/>
                <path d="M851.162,1293.219L861.026,1268.548L868.005,1268.548L877.783,1293.219L870.848,1293.219L868.996,1287.933L859.863,1287.933L858.011,1293.219L851.162,1293.219ZM861.285,1283.625L867.488,1283.625L866.454,1280.649C866.11,1279.683 865.758,1278.651 865.399,1277.555C865.04,1276.458 864.731,1275.453 864.473,1274.54L864.386,1274.54C864.099,1275.427 863.769,1276.413 863.396,1277.496C863.022,1278.58 862.663,1279.63 862.319,1280.649L861.285,1283.625Z" style="fill-rule:nonzero;"/>
                <g transform="matrix(1,0,0,1,6.529833,0)">
                    <path d="M886.571,1293.219L886.571,1268.548L904.233,1268.548L904.233,1273.091L893.119,1273.091L893.119,1279.121L903.285,1279.121L903.285,1283.625L893.119,1283.625L893.119,1293.219L886.571,1293.219Z" style="fill-rule:nonzero;"/>
                </g>
                <g transform="matrix(1,0,0,1,6.529833,0)">
                    <path d="M905.74,1293.219L905.74,1268.548L912.288,1268.548L912.288,1288.598L923.014,1288.598L923.014,1293.219L905.74,1293.219Z" style="fill-rule:nonzero;"/>
                </g>
                <g transform="matrix(1,0,0,1,6.529833,0)">
                    <path d="M921.506,1293.219L931.371,1268.548L938.35,1268.548L948.128,1293.219L941.193,1293.219L939.34,1287.933L930.208,1287.933L928.356,1293.219L921.506,1293.219ZM931.63,1283.625L937.833,1283.625L936.799,1280.649C936.454,1279.683 936.102,1278.651 935.743,1277.555C935.384,1276.458 935.076,1275.453 934.817,1274.54L934.731,1274.54C934.444,1275.427 934.114,1276.413 933.74,1277.496C933.367,1278.58 933.008,1279.63 932.663,1280.649L931.63,1283.625Z" style="fill-rule:nonzero;"/>
                </g>
                <g transform="matrix(1,0,0,1,6.529833,0)">
                    <path d="M956.485,1293.219L946.879,1268.548L953.814,1268.548L957.39,1278.847C957.82,1280.1 958.28,1281.504 958.768,1283.057C959.256,1284.61 959.687,1286.17 960.06,1287.737L960.19,1287.737C960.563,1286.17 960.986,1284.61 961.46,1283.057C961.934,1281.504 962.401,1280.087 962.86,1278.808L966.393,1268.548L973.113,1268.548L963.765,1293.219L956.485,1293.219Z" style="fill-rule:nonzero;"/>
                </g>
                <g transform="matrix(1,0,0,1,6.529833,0)">
                    <path d="M986.165,1293.65C983.552,1293.65 981.225,1293.147 979.186,1292.142C977.147,1291.137 975.539,1289.682 974.362,1287.776C973.184,1285.87 972.596,1283.586 972.596,1280.923C972.596,1278.312 973.199,1276.047 974.405,1274.128C975.611,1272.209 977.248,1270.721 979.316,1269.664C981.383,1268.607 983.724,1268.078 986.337,1268.078C988.951,1268.078 991.277,1268.594 993.316,1269.625C995.355,1270.656 996.963,1272.125 998.14,1274.03C999.318,1275.936 999.906,1278.234 999.906,1280.923C999.906,1283.533 999.303,1285.792 998.097,1287.698C996.891,1289.603 995.254,1291.072 993.186,1292.103C991.119,1293.134 988.778,1293.65 986.165,1293.65ZM986.337,1289.186C988.204,1289.186 989.783,1288.5 991.076,1287.13C992.368,1285.759 993.014,1283.69 993.014,1280.923C993.014,1278.991 992.705,1277.411 992.088,1276.184C991.471,1274.957 990.645,1274.043 989.611,1273.443C988.577,1272.843 987.429,1272.542 986.165,1272.542C984.327,1272.542 982.755,1273.241 981.448,1274.637C980.141,1276.034 979.488,1278.129 979.488,1280.923C979.488,1282.776 979.797,1284.317 980.414,1285.544C981.032,1286.771 981.864,1287.685 982.913,1288.285C983.961,1288.885 985.102,1289.186 986.337,1289.186Z" style="fill-rule:nonzero;"/>
                </g>
                <g transform="matrix(1,0,0,1,6.529833,0)">
                    <path d="M1001.974,1293.219L1001.974,1268.548L1012.743,1268.548C1014.84,1268.548 1016.584,1268.9 1017.977,1269.605C1019.37,1270.31 1020.425,1271.243 1021.143,1272.405C1021.861,1273.567 1022.22,1274.866 1022.22,1276.302C1022.22,1277.633 1021.94,1278.769 1021.38,1279.709C1020.82,1280.649 1020.145,1281.406 1019.356,1281.98C1018.566,1282.554 1017.812,1282.985 1017.094,1283.272L1023.599,1293.219L1016.06,1293.219L1011.236,1284.33L1008.522,1284.33L1008.522,1293.219L1001.974,1293.219ZM1008.522,1279.826L1010.503,1279.826C1011.997,1279.826 1013.203,1279.546 1014.122,1278.984C1015.041,1278.423 1015.5,1277.542 1015.5,1276.341C1015.5,1275.323 1015.127,1274.513 1014.38,1273.913C1013.634,1273.312 1012.557,1273.012 1011.15,1273.012L1008.522,1273.012L1008.522,1279.826Z" style="fill-rule:nonzero;"/>
                </g>
                <g transform="matrix(1,0,0,1,6.529833,0)">
                    <path d="M1024.676,1293.219L1024.676,1268.548L1042.768,1268.548L1042.768,1273.091L1031.223,1273.091L1031.223,1278.142L1041.648,1278.142L1041.648,1282.646L1031.223,1282.646L1031.223,1288.677L1042.897,1288.677L1042.897,1293.219L1024.676,1293.219Z" style="fill-rule:nonzero;"/>
                </g>
                <g transform="matrix(1,0,0,1,6.529833,0)">
                    <path d="M1044.793,1293.219L1044.793,1268.548L1054.485,1268.548C1057.357,1268.548 1059.862,1268.992 1062.002,1269.879C1064.141,1270.767 1065.8,1272.085 1066.977,1273.835C1068.155,1275.584 1068.743,1277.764 1068.743,1280.374C1068.743,1283.272 1068.054,1285.674 1066.676,1287.58C1065.297,1289.486 1063.445,1290.902 1061.119,1291.829C1058.793,1292.756 1056.222,1293.219 1053.408,1293.219L1044.793,1293.219ZM1051.34,1288.677L1053.02,1288.677C1054.571,1288.677 1056.021,1288.429 1057.371,1287.933C1058.721,1287.436 1059.805,1286.581 1060.623,1285.367C1061.442,1284.154 1061.851,1282.489 1061.851,1280.374C1061.851,1278.025 1061.112,1276.223 1059.633,1274.97C1058.154,1273.717 1056.179,1273.091 1053.71,1273.091L1051.34,1273.091L1051.34,1288.677Z" style="fill-rule:nonzero;"/>
                </g>
                <g transform="matrix(1,0,0,1,14.246908,0)">
                    <path d="M1078.306,1293.219L1078.306,1268.548L1088.128,1268.548C1091.402,1268.548 1094.008,1269.207 1095.946,1270.526C1097.885,1271.844 1098.854,1273.704 1098.854,1276.106C1098.854,1278.012 1098.337,1279.585 1097.303,1280.825C1096.27,1282.065 1094.905,1282.979 1093.211,1283.566C1091.517,1284.154 1089.65,1284.447 1087.611,1284.447L1084.854,1284.447L1084.854,1293.219L1078.306,1293.219ZM1084.854,1279.944L1087.223,1279.944C1088.516,1279.944 1089.657,1279.676 1090.648,1279.141C1091.639,1278.606 1092.134,1277.699 1092.134,1276.419C1092.134,1275.297 1091.711,1274.448 1090.863,1273.874C1090.016,1273.299 1088.889,1273.012 1087.482,1273.012L1084.854,1273.012L1084.854,1279.944Z" style="fill-rule:nonzero;"/>
                </g>
                <g transform="matrix(1,0,0,1,14.246908,0)">
                    <path d="M1100.577,1293.219L1100.577,1268.548L1111.346,1268.548C1113.443,1268.548 1115.187,1268.9 1116.58,1269.605C1117.973,1270.31 1119.029,1271.243 1119.746,1272.405C1120.464,1273.567 1120.823,1274.866 1120.823,1276.302C1120.823,1277.633 1120.543,1278.769 1119.983,1279.709C1119.423,1280.649 1118.749,1281.406 1117.959,1281.98C1117.169,1282.554 1116.415,1282.985 1115.697,1283.272L1122.202,1293.219L1114.663,1293.219L1109.839,1284.33L1107.125,1284.33L1107.125,1293.219L1100.577,1293.219ZM1107.125,1279.826L1109.106,1279.826C1110.6,1279.826 1111.806,1279.546 1112.725,1278.984C1113.644,1278.423 1114.103,1277.542 1114.103,1276.341C1114.103,1275.323 1113.73,1274.513 1112.983,1273.913C1112.237,1273.312 1111.16,1273.012 1109.753,1273.012L1107.125,1273.012L1107.125,1279.826Z" style="fill-rule:nonzero;"/>
                </g>
                <g transform="matrix(1,0,0,1,14.246908,0)">
                    <path d="M1135.642,1293.65C1133.029,1293.65 1130.702,1293.147 1128.663,1292.142C1126.624,1291.137 1125.016,1289.682 1123.839,1287.776C1122.661,1285.87 1122.073,1283.586 1122.073,1280.923C1122.073,1278.312 1122.676,1276.047 1123.882,1274.128C1125.088,1272.209 1126.725,1270.721 1128.793,1269.664C1130.86,1268.607 1133.201,1268.078 1135.814,1268.078C1138.427,1268.078 1140.754,1268.594 1142.793,1269.625C1144.832,1270.656 1146.44,1272.125 1147.617,1274.03C1148.795,1275.936 1149.383,1278.234 1149.383,1280.923C1149.383,1283.533 1148.78,1285.792 1147.574,1287.698C1146.368,1289.603 1144.731,1291.072 1142.663,1292.103C1140.596,1293.134 1138.255,1293.65 1135.642,1293.65ZM1135.814,1289.186C1137.681,1289.186 1139.26,1288.5 1140.553,1287.13C1141.845,1285.759 1142.491,1283.69 1142.491,1280.923C1142.491,1278.991 1142.182,1277.411 1141.565,1276.184C1140.947,1274.957 1140.122,1274.043 1139.088,1273.443C1138.054,1272.843 1136.905,1272.542 1135.642,1272.542C1133.804,1272.542 1132.232,1273.241 1130.925,1274.637C1129.618,1276.034 1128.965,1278.129 1128.965,1280.923C1128.965,1282.776 1129.274,1284.317 1129.891,1285.544C1130.509,1286.771 1131.341,1287.685 1132.39,1288.285C1133.438,1288.885 1134.579,1289.186 1135.814,1289.186Z" style="fill-rule:nonzero;"/>
                </g>
                <g transform="matrix(1,0,0,1,14.246908,0)">
                    <path d="M1156.276,1293.219L1156.276,1273.169L1149.039,1273.169L1149.039,1268.548L1170.233,1268.548L1170.233,1273.169L1162.823,1273.169L1162.823,1293.219L1156.276,1293.219Z" style="fill-rule:nonzero;"/>
                </g>
                <g transform="matrix(1,0,0,1,14.246908,0)">
                    <path d="M1171.051,1293.219L1171.051,1268.548L1189.143,1268.548L1189.143,1273.091L1177.599,1273.091L1177.599,1278.142L1188.023,1278.142L1188.023,1282.646L1177.599,1282.646L1177.599,1288.677L1189.273,1288.677L1189.273,1293.219L1171.051,1293.219Z" style="fill-rule:nonzero;"/>
                </g>
                <g transform="matrix(1,0,0,1,14.246908,0)">
                    <rect x="1191.168" y="1268.548" width="6.548" height="24.671" style="fill-rule:nonzero;"/>
                </g>
                <g transform="matrix(1,0,0,1,14.246908,0)">
                    <path d="M1200.99,1293.219L1200.99,1268.548L1207.02,1268.548L1212.965,1276.811C1214.027,1278.273 1215.054,1279.794 1216.045,1281.373C1217.036,1282.953 1217.804,1284.356 1218.35,1285.583L1218.436,1285.583C1218.292,1284.043 1218.206,1282.476 1218.177,1280.884C1218.149,1279.291 1218.134,1277.712 1218.134,1276.145L1218.134,1268.548L1224.165,1268.548L1224.165,1293.219L1218.134,1293.219L1211.845,1284.8C1210.811,1283.416 1209.863,1282.006 1209.002,1280.57C1208.14,1279.134 1207.408,1277.62 1206.805,1276.028L1206.719,1276.028C1206.862,1277.646 1206.949,1279.219 1206.977,1280.747C1207.006,1282.274 1207.02,1283.821 1207.02,1285.387L1207.02,1293.219L1200.99,1293.219Z" style="fill-rule:nonzero;"/>
                </g>
            </g>
            <g transform="matrix(1.527581,0,0,1.527581,485.598318,-1603.361184)">
                <g transform="matrix(24,0,0,24,668.416234,911.921276)">
                </g>
                <text x="389.32px" y="911.921px" style="font-family:'MuktaMahee-Medium', 'Mukta Mahee';font-weight:500;font-size:24px;">N<tspan x="407.512px 421.744px 435.904px 443.368px 466.192px 480.352px 487.816px 498.4px 512.176px 519.496px 533.008px 546.184px 553.648px 572.32px 586.864px 594.328px 603.208px 617.464px 631.24px 646.336px 661.6px " y="911.921px 911.921px 911.921px 911.921px 911.921px 911.921px 911.921px 911.921px 911.921px 911.921px 911.921px 911.921px 911.921px 911.921px 911.921px 911.921px 911.921px 911.921px 911.921px 911.921px 911.921px ">ET WT 15.87 OZ (450g)</tspan></text>
            </g>
        </g>
    </g>
</svg>
