<?xml version="1.0" encoding="UTF-8" standalone="no"?>
<!DOCTYPE svg PUBLIC "-//W3C//DTD SVG 1.1//EN" "http://www.w3.org/Graphics/SVG/1.1/DTD/svg11.dtd">
<svg width="100%" height="100%" viewBox="0 0 328 328" version="1.1" xmlns="http://www.w3.org/2000/svg" xmlns:xlink="http://www.w3.org/1999/xlink" xml:space="preserve" xmlns:serif="http://www.serif.com/" style="fill-rule:evenodd;clip-rule:evenodd;stroke-linejoin:round;stroke-miterlimit:2;">
    <g transform="matrix(1,0,0,1,-674.229007,-849)">
        <g id="Artboard4" transform="matrix(0.935431,0,0,0.935431,23.168831,766.682047)">
            <rect x="696" y="88" width="349.892" height="349.892" style="fill:none;"/>
            <g transform="matrix(1.107835,0,0,1.107835,-990.770873,-959.550011)">
                <path d="M1561.297,1196.968C1541.069,1171.215 1529,1138.756 1529,1103.5C1529,1019.885 1596.885,952 1680.5,952C1764.115,952 1832,1019.885 1832,1103.5C1832,1138.756 1819.931,1171.215 1799.703,1196.968L1561.297,1196.968ZM1714.279,1023.499C1705.58,1002.838 1677.61,975.251 1677.61,975.251C1677.61,975.251 1651.587,993.502 1638.046,1025.429C1630.731,1042.679 1645.575,1073.348 1676.645,1072.713C1709.47,1072.041 1723.626,1045.7 1714.279,1023.499ZM1591.324,1129.511L1602.012,1129.511L1602.012,1082.883L1591.324,1082.883L1591.324,1129.511ZM1606.441,1129.511L1617.621,1129.511L1620.644,1119.519L1635.551,1119.519L1638.574,1129.511L1649.895,1129.511L1633.934,1082.883L1622.543,1082.883L1606.441,1129.511ZM1622.965,1111.378L1624.652,1105.753C1625.215,1103.829 1625.801,1101.843 1626.41,1099.795C1627.02,1097.747 1627.559,1095.885 1628.027,1094.207L1628.168,1094.207C1628.59,1095.934 1629.094,1097.834 1629.68,1099.906C1630.266,1101.978 1630.84,1103.927 1631.402,1105.753L1633.09,1111.378L1622.965,1111.378ZM1546.394,1129.511L1560.457,1129.511C1565.051,1129.511 1569.246,1128.635 1573.043,1126.884C1576.84,1125.132 1579.863,1122.455 1582.113,1118.853C1584.363,1115.251 1585.488,1110.712 1585.488,1105.235C1585.488,1100.301 1584.527,1096.181 1582.605,1092.875C1580.683,1089.569 1577.976,1087.077 1574.484,1085.399C1570.992,1083.722 1566.902,1082.883 1562.215,1082.883L1546.394,1082.883L1546.394,1129.511ZM1557.082,1120.926L1557.082,1091.468L1560.949,1091.468C1564.98,1091.468 1568.203,1092.653 1570.617,1095.021C1573.031,1097.389 1574.238,1100.794 1574.238,1105.235C1574.238,1109.232 1573.57,1112.377 1572.234,1114.672C1570.898,1116.966 1569.129,1118.582 1566.926,1119.519C1564.722,1120.457 1562.355,1120.926 1559.824,1120.926L1557.082,1120.926ZM1693.981,1129.511L1723.723,1129.511L1723.723,1120.926L1704.668,1120.926L1704.668,1109.528L1721.684,1109.528L1721.684,1101.016L1704.668,1101.016L1704.668,1091.468L1723.512,1091.468L1723.512,1082.883L1693.981,1082.883L1693.981,1129.511ZM1737.293,1129.511L1747.981,1129.511L1747.981,1091.616L1760.075,1091.616L1760.075,1082.883L1725.481,1082.883L1725.481,1091.616L1737.293,1091.616L1737.293,1129.511ZM1654.465,1129.511L1670.777,1129.511C1674.293,1129.511 1677.34,1128.944 1679.918,1127.809C1682.496,1126.674 1684.488,1125.107 1685.895,1123.109C1687.301,1121.111 1688.004,1118.829 1688.004,1116.263C1688.004,1112.908 1687.067,1110.329 1685.192,1108.528C1683.317,1106.728 1681.09,1105.58 1678.512,1105.087C1679.777,1104.791 1681.031,1104.223 1682.274,1103.385C1683.516,1102.546 1684.559,1101.436 1685.402,1100.054C1686.246,1098.672 1686.668,1097.044 1686.668,1095.169C1686.668,1091.37 1685.262,1088.372 1682.449,1086.176C1679.637,1083.981 1675.863,1082.883 1671.129,1082.883L1654.465,1082.883L1654.465,1129.511ZM1665.152,1121.074L1665.152,1109.602L1669.371,1109.602C1671.668,1109.602 1673.52,1110.046 1674.926,1110.934C1676.332,1111.822 1677.035,1113.253 1677.035,1115.227C1677.035,1117.348 1676.32,1118.853 1674.891,1119.742C1673.461,1120.63 1671.598,1121.074 1669.301,1121.074L1665.152,1121.074ZM1665.152,1101.238L1665.152,1091.32L1669.512,1091.32C1673.637,1091.32 1675.699,1092.875 1675.699,1095.983C1675.699,1097.513 1675.16,1098.771 1674.082,1099.758C1673.004,1100.745 1671.457,1101.238 1669.441,1101.238L1665.152,1101.238ZM1753.36,1013.85L1747.309,1025.98L1733.629,1027.852L1743.57,1037.221L1741.165,1050.508L1753.36,1044.169L1765.555,1050.508L1763.15,1037.221L1773.091,1027.852L1759.411,1025.98L1753.36,1013.85ZM1764.012,1129.511L1774.7,1129.511L1774.7,1082.883L1764.012,1082.883L1764.012,1129.511ZM1804.231,1130.325C1807.278,1130.325 1809.844,1130.029 1811.93,1129.437C1814.016,1128.845 1815.528,1128.253 1816.465,1127.661L1814.356,1119.593C1813.372,1120.235 1812.141,1120.753 1810.665,1121.148C1809.188,1121.543 1807.418,1121.74 1805.356,1121.74C1802.825,1121.74 1800.551,1121.16 1798.536,1120.001C1796.52,1118.841 1794.914,1117.102 1793.719,1114.783C1792.524,1112.464 1791.926,1109.552 1791.926,1106.049C1791.926,1102.299 1792.524,1099.301 1793.719,1097.056C1794.914,1094.811 1796.543,1093.171 1798.606,1092.135C1800.668,1091.098 1802.942,1090.58 1805.426,1090.58C1807.208,1090.58 1808.848,1090.827 1810.348,1091.32C1811.848,1091.814 1813.114,1092.381 1814.145,1093.023L1816.536,1084.807C1815.411,1084.166 1813.864,1083.537 1811.895,1082.92C1809.926,1082.303 1807.418,1081.995 1804.372,1081.995C1799.497,1081.995 1795.289,1082.994 1791.75,1084.992C1788.211,1086.991 1785.481,1089.803 1783.559,1093.43C1781.637,1097.056 1780.676,1101.288 1780.676,1106.123C1780.676,1111.057 1781.672,1115.338 1783.664,1118.964C1785.657,1122.591 1788.422,1125.391 1791.961,1127.365C1795.5,1129.339 1799.59,1130.325 1804.231,1130.325ZM1578.428,1176.954L1587.189,1176.954L1587.189,1162.832L1600.792,1162.832L1600.792,1156.204L1587.189,1156.204L1587.189,1147.328L1602.06,1147.328L1602.06,1140.642L1578.428,1140.642L1578.428,1176.954ZM1603.04,1176.954L1611.801,1176.954L1611.801,1163.87L1615.432,1163.87L1621.888,1176.954L1631.974,1176.954L1623.271,1162.314C1624.232,1161.891 1625.24,1161.257 1626.297,1160.412C1627.354,1159.566 1628.257,1158.452 1629.006,1157.069C1629.755,1155.685 1630.13,1154.014 1630.13,1152.054C1630.13,1149.941 1629.65,1148.029 1628.689,1146.319C1627.728,1144.609 1626.316,1143.235 1624.453,1142.198C1622.589,1141.161 1620.255,1140.642 1617.45,1140.642L1603.04,1140.642L1603.04,1176.954ZM1611.801,1157.242L1611.801,1147.213L1615.317,1147.213C1617.2,1147.213 1618.641,1147.654 1619.64,1148.538C1620.639,1149.422 1621.138,1150.613 1621.138,1152.112C1621.138,1153.879 1620.524,1155.176 1619.294,1156.002C1618.064,1156.829 1616.45,1157.242 1614.452,1157.242L1611.801,1157.242ZM1632.378,1176.954L1641.139,1176.954L1641.139,1140.642L1632.378,1140.642L1632.378,1176.954ZM1644.482,1176.954L1668.863,1176.954L1668.863,1170.268L1653.243,1170.268L1653.243,1161.392L1667.191,1161.392L1667.191,1154.763L1653.243,1154.763L1653.243,1147.328L1668.69,1147.328L1668.69,1140.642L1644.482,1140.642L1644.482,1176.954ZM1670.361,1176.954L1678.431,1176.954L1678.431,1165.426C1678.431,1163.121 1678.412,1160.844 1678.373,1158.596C1678.335,1156.348 1678.219,1154.033 1678.027,1151.651L1678.143,1151.651C1678.949,1153.995 1679.929,1156.223 1681.082,1158.337C1682.235,1160.45 1683.503,1162.525 1684.886,1164.562L1693.301,1176.954L1701.371,1176.954L1701.371,1140.642L1693.301,1140.642L1693.301,1151.824C1693.301,1154.129 1693.321,1156.454 1693.359,1158.798C1693.397,1161.142 1693.513,1163.447 1693.705,1165.714L1693.59,1165.714C1692.859,1163.908 1691.832,1161.843 1690.506,1159.518C1689.18,1157.194 1687.807,1154.955 1686.385,1152.803L1678.431,1140.642L1670.361,1140.642L1670.361,1176.954ZM1704.714,1176.954L1716.241,1176.954C1720.007,1176.954 1723.446,1176.272 1726.559,1174.908C1729.671,1173.544 1732.15,1171.459 1733.994,1168.654C1735.838,1165.849 1736.761,1162.314 1736.761,1158.049C1736.761,1154.206 1735.973,1150.997 1734.397,1148.423C1732.822,1145.848 1730.603,1143.908 1727.74,1142.601C1724.878,1141.295 1721.525,1140.642 1717.682,1140.642L1704.714,1140.642L1704.714,1176.954ZM1713.475,1170.268L1713.475,1147.328L1716.645,1147.328C1719.949,1147.328 1722.591,1148.25 1724.57,1150.094C1726.549,1151.939 1727.538,1154.59 1727.538,1158.049C1727.538,1161.161 1726.991,1163.611 1725.896,1165.397C1724.801,1167.184 1723.35,1168.443 1721.544,1169.173C1719.738,1169.903 1717.798,1170.268 1715.723,1170.268L1713.475,1170.268ZM1738.374,1176.954L1761.487,1176.954L1761.487,1170.153L1747.135,1170.153L1747.135,1140.642L1738.374,1140.642L1738.374,1176.954ZM1770.594,1176.954L1779.355,1176.954L1779.355,1162.026L1792.209,1140.642L1782.583,1140.642L1775.205,1154.014L1767.885,1140.642L1758.029,1140.642L1770.594,1162.026L1770.594,1176.954ZM1599.93,1013.85L1593.88,1025.98L1580.199,1027.852L1590.14,1037.221L1587.735,1050.508L1599.93,1044.169L1612.125,1050.508L1609.72,1037.221L1619.662,1027.852L1605.981,1025.98L1599.93,1013.85ZM1790.673,1207.449C1786.535,1211.833 1782.138,1215.97 1777.508,1219.836L1583.492,1219.836C1578.862,1215.97 1574.465,1211.833 1570.327,1207.449L1790.673,1207.449ZM1763.369,1230.317C1739.55,1245.922 1711.077,1255 1680.5,1255C1649.923,1255 1621.45,1245.922 1597.631,1230.317L1763.369,1230.317Z" style="fill:rgb(172,139,73);"/>
            </g>
            <g transform="matrix(1.069026,0,0,1.129536,-870.491128,-973.209823)">
                <path d="M1618,1030.119L1596.994,1030.119L1596.994,1016.881L1618,1016.881L1618,997L1631.988,997L1631.988,1016.881L1652.994,1016.881L1652.994,1030.119L1631.988,1030.119L1631.988,1050L1618,1050L1618,1030.119Z" style="fill:rgb(172,139,73);"/>
            </g>
        </g>
    </g>
</svg>
