<?xml version="1.0" encoding="UTF-8" standalone="no"?>
<!DOCTYPE svg PUBLIC "-//W3C//DTD SVG 1.1//EN" "http://www.w3.org/Graphics/SVG/1.1/DTD/svg11.dtd">
<svg width="100%" height="100%" viewBox="0 0 328 328" version="1.1" xmlns="http://www.w3.org/2000/svg" xmlns:xlink="http://www.w3.org/1999/xlink" xml:space="preserve" xmlns:serif="http://www.serif.com/" style="fill-rule:evenodd;clip-rule:evenodd;stroke-linejoin:round;stroke-miterlimit:2;">
    <g transform="matrix(1,0,0,1,-1107,-855)">
        <g id="Artboard5" transform="matrix(0.918558,0,0,0.918612,119.51546,766.813212)">
            <rect x="1075.038" y="96" width="356.32" height="356.32" style="fill:none;"/>
            <g transform="matrix(1.128186,0,0,1.128119,-642.707617,-970.719019)">
                <path d="M1561.297,1196.968C1541.069,1171.215 1529,1138.756 1529,1103.5C1529,1019.885 1596.885,952 1680.5,952C1764.115,952 1832,1019.885 1832,1103.5C1832,1138.756 1819.931,1171.215 1799.703,1196.968L1561.297,1196.968ZM1680.137,989.63L1675.654,998.133L1665.913,999.632L1672.883,1006.386L1671.346,1015.815L1680.137,1011.486L1688.929,1015.815L1687.392,1006.386L1694.362,999.632L1684.621,998.133L1680.137,989.63ZM1642.525,989.63L1638.042,998.133L1628.3,999.632L1635.271,1006.386L1633.734,1015.815L1642.525,1011.486L1651.317,1015.815L1649.779,1006.386L1656.75,999.632L1647.009,998.133L1642.525,989.63ZM1717.771,989.63L1713.288,998.133L1703.546,999.632L1710.517,1006.386L1708.98,1015.815L1717.771,1011.486L1726.563,1015.815L1725.025,1006.386L1731.996,999.632L1722.255,998.133L1717.771,989.63ZM1578.494,1177.413L1594.672,1177.413L1594.672,1153.043L1619.79,1153.043L1619.79,1141.604L1594.672,1141.604L1594.672,1126.286L1622.132,1126.286L1622.132,1114.747L1578.494,1114.747L1578.494,1177.413ZM1627.56,1177.413L1643.737,1177.413L1643.737,1154.833L1650.443,1154.833L1662.363,1177.413L1680.989,1177.413L1664.918,1152.148C1666.691,1151.418 1668.554,1150.324 1670.505,1148.865C1672.457,1147.406 1674.124,1145.483 1675.508,1143.096C1676.891,1140.709 1677.583,1137.824 1677.583,1134.442C1677.583,1130.795 1676.696,1127.496 1674.922,1124.545C1673.148,1121.594 1670.541,1119.223 1667.099,1117.433C1663.658,1115.642 1659.348,1114.747 1654.168,1114.747L1627.56,1114.747L1627.56,1177.413ZM1643.737,1143.394L1643.737,1126.087L1650.23,1126.087C1653.707,1126.087 1656.368,1126.849 1658.212,1128.374C1660.057,1129.9 1660.98,1131.955 1660.98,1134.542C1660.98,1137.592 1659.844,1139.83 1657.574,1141.256C1655.303,1142.682 1652.323,1143.394 1648.633,1143.394L1643.737,1143.394ZM1756.546,1108.325C1763.51,1108.325 1769.747,1106.813 1775.256,1103.791C1780.766,1100.768 1785.128,1096.464 1788.342,1090.877C1791.556,1085.291 1793.163,1078.672 1793.163,1071.019C1793.163,1063.137 1791.594,1056.403 1788.457,1050.817C1785.319,1045.23 1781.034,1040.926 1775.601,1037.903C1770.168,1034.88 1763.969,1033.369 1757.005,1033.369C1750.042,1033.369 1743.805,1034.919 1738.295,1038.018C1732.785,1041.117 1728.423,1045.479 1725.209,1051.104C1721.995,1056.728 1720.388,1063.367 1720.388,1071.019C1720.388,1078.825 1721.957,1085.521 1725.095,1091.107C1728.232,1096.693 1732.518,1100.959 1737.951,1103.906C1743.384,1106.852 1749.583,1108.325 1756.546,1108.325ZM1757.005,1095.239C1753.715,1095.239 1750.673,1094.359 1747.88,1092.599C1745.087,1090.839 1742.867,1088.161 1741.222,1084.564C1739.577,1080.967 1738.754,1076.452 1738.754,1071.019C1738.754,1062.831 1740.495,1056.69 1743.977,1052.596C1747.459,1048.502 1751.649,1046.455 1756.546,1046.455C1759.913,1046.455 1762.974,1047.335 1765.729,1049.095C1768.484,1050.855 1770.684,1053.533 1772.329,1057.13C1773.975,1060.727 1774.797,1065.356 1774.797,1071.019C1774.797,1079.131 1773.076,1085.195 1769.632,1089.213C1766.188,1093.23 1761.979,1095.239 1757.005,1095.239ZM1685.353,1177.413L1730.374,1177.413L1730.374,1165.875L1701.53,1165.875L1701.53,1150.556L1727.287,1150.556L1727.287,1139.117L1701.53,1139.117L1701.53,1126.286L1730.054,1126.286L1730.054,1114.747L1685.353,1114.747L1685.353,1177.413ZM1736.76,1177.413L1781.781,1177.413L1781.781,1165.875L1752.937,1165.875L1752.937,1150.556L1778.694,1150.556L1778.694,1139.117L1752.937,1139.117L1752.937,1126.286L1781.461,1126.286L1781.461,1114.747L1736.76,1114.747L1736.76,1177.413ZM1606.749,1108.325C1611.8,1108.325 1616.353,1107.885 1620.409,1107.005C1624.465,1106.125 1627.985,1105.073 1630.97,1103.848L1630.97,1066.657L1602.847,1066.657L1602.847,1079.513L1614.211,1079.513L1614.211,1095.239C1612.757,1095.851 1610.308,1096.157 1606.864,1096.157C1600.283,1096.157 1595.194,1093.976 1591.598,1089.615C1588.001,1085.253 1586.203,1079.054 1586.203,1071.019C1586.203,1065.127 1587.197,1060.287 1589.187,1056.499C1591.177,1052.711 1593.855,1049.918 1597.222,1048.119C1600.589,1046.321 1604.301,1045.422 1608.357,1045.422C1611.035,1045.422 1613.809,1045.709 1616.679,1046.283C1619.548,1046.857 1622.284,1047.794 1624.886,1049.095L1628.444,1037.616C1625.689,1036.315 1622.514,1035.282 1618.917,1034.517C1615.32,1033.752 1611.264,1033.369 1606.749,1033.369C1599.48,1033.369 1592.899,1034.823 1587.006,1037.731C1581.114,1040.639 1576.446,1044.886 1573.002,1050.472C1569.559,1056.059 1567.837,1062.908 1567.837,1071.019C1567.837,1079.054 1569.559,1085.846 1573.002,1091.394C1576.446,1096.942 1581.114,1101.151 1587.006,1104.02C1592.899,1106.89 1599.48,1108.325 1606.749,1108.325ZM1635.331,1107.062L1651.402,1107.062L1652.664,1082.613C1652.817,1079.934 1652.97,1076.739 1653.123,1073.028C1653.276,1069.316 1653.372,1065.49 1653.41,1061.549C1653.449,1057.608 1653.429,1054.031 1653.353,1050.817L1653.697,1050.817C1654.692,1055.867 1655.859,1061.128 1657.198,1066.6C1658.537,1072.071 1659.896,1076.95 1661.273,1081.235L1669.653,1107.062L1682.738,1107.062L1690.773,1081.12C1692.074,1076.912 1693.471,1072.052 1694.963,1066.542C1696.455,1061.033 1697.699,1055.791 1698.694,1050.817L1699.038,1050.817L1699.038,1061.09C1699.038,1064.878 1699.095,1068.647 1699.21,1072.397C1699.325,1076.146 1699.459,1079.552 1699.612,1082.613L1700.875,1107.062L1717.174,1107.062L1712.009,1034.747L1690.199,1034.747L1682.624,1060.114C1682.241,1061.568 1681.648,1063.692 1680.844,1066.485C1680.041,1069.278 1679.256,1072.301 1678.491,1075.553C1677.726,1078.806 1677.114,1081.809 1676.655,1084.564L1676.081,1084.564C1675.698,1081.962 1675.143,1079.169 1674.416,1076.185C1673.689,1073.2 1672.924,1070.292 1672.121,1067.461C1671.317,1064.629 1670.571,1062.181 1669.882,1060.114L1662.077,1034.747L1640.267,1034.747L1635.331,1107.062ZM1790.673,1207.449C1786.535,1211.833 1782.138,1215.97 1777.508,1219.836L1583.492,1219.836C1578.862,1215.97 1574.465,1211.833 1570.327,1207.449L1790.673,1207.449ZM1763.369,1230.317C1739.55,1245.922 1711.077,1255 1680.5,1255C1649.923,1255 1621.45,1245.922 1597.631,1230.317L1763.369,1230.317Z" style="fill:rgb(172,139,73);"/>
            </g>
        </g>
    </g>
</svg>
