<?xml version="1.0" encoding="UTF-8" standalone="no"?>
<!DOCTYPE svg PUBLIC "-//W3C//DTD SVG 1.1//EN" "http://www.w3.org/Graphics/SVG/1.1/DTD/svg11.dtd">
<svg width="100%" height="100%" viewBox="0 0 384 384" version="1.1" xmlns="http://www.w3.org/2000/svg" xmlns:xlink="http://www.w3.org/1999/xlink" xml:space="preserve" xmlns:serif="http://www.serif.com/" style="fill-rule:evenodd;clip-rule:evenodd;stroke-linejoin:round;stroke-miterlimit:2;">
    <g transform="matrix(1,0,0,1,-2484,-602)">
        <g id="Artboard13" transform="matrix(0.705882,0,0,0.705882,807.825163,212.352941)">
            <rect x="2374.581" y="552" width="544" height="544" style="fill:none;"/>
            <g transform="matrix(1.416667,0,0,1.416667,2362.47328,539.768676)">
                <path d="M382.669,209.508C370.552,376.355 177.346,437.809 69.51,327.49C-27.7,228.042 20.616,57.798 155.584,23.835C230.436,4.999 292.734,37.134 323.2,65.829C382.274,121.47 383.182,181.878 382.669,209.508Z" style="fill:rgb(23,22,49);"/>
            </g>
            <g transform="matrix(1.416667,0,0,1.416667,2362.47328,541.185343)">
                <path d="M371.864,221.542C350.633,368.391 181.548,421.754 79.34,323.665C3.322,250.71 6.455,105.518 125.352,45.198C191.616,11.58 303.702,22.494 355.822,125.343C377.417,167.955 372.668,213.781 371.864,221.542Z" style="fill:rgb(253,252,251);"/>
            </g>
            <g transform="matrix(1.416667,0,0,1.416667,2362.47328,539.768676)">
                <path d="M200.466,73.908C199.593,80.017 200.705,92.181 200.85,93.763C199.741,97.176 200.144,109.862 200.681,112.391C199.221,123.549 200.571,131.161 200.855,132.766C199.701,136.278 200.206,149.121 200.646,151.416C199.727,161.604 199.733,161.578 200.86,171.769C199.673,175.348 200.249,188.336 200.624,190.432C200.059,200.519 200.052,200.438 200.5,210.497C187.256,210.597 76.357,210.661 75.516,210.443C71.124,209.307 75.241,174.405 78.841,164.81C81.447,164.694 80.52,165.987 80.315,168.593C79.628,169.973 79.467,170.002 79.576,170.077C79.576,170.077 81.358,169.578 81.513,169.534C83.447,168.336 83.585,168.216 85.554,169.378C88.936,171.373 85.859,166.182 87.878,164.752C88.239,164.497 88.707,164.403 89.041,164.112C91.703,161.789 86.092,163.835 84.807,160.282C83.315,156.154 82.645,163.247 80.319,163.005C80.069,162.979 80.249,162.346 79.998,162.32C81.072,153.381 86.745,146.679 87.184,145.477C89.916,137.998 90.242,138.233 94.465,131.433C98.165,132.082 95.132,133.896 95.683,135.455C96.669,138.241 98.572,133.296 101.416,135.752C103.962,137.951 102.92,133.71 102.869,133.502C102.343,131.359 107.402,128.93 104.442,128.653C101.046,128.336 101.099,127.757 100.031,124.463C100.352,123.459 101.466,119.974 107.937,113.925C120.743,101.954 147.314,74.401 200.466,73.908Z" style="fill:rgb(42,47,77);"/>
            </g>
            <g transform="matrix(1.416667,0,0,1.416667,2362.47328,539.768676)">
                <path d="M322.64,234.539C320.315,242.014 318.842,249.363 315.496,249.449C312.27,249.532 105.74,249.483 87.5,249.479C82.064,249.478 81.79,246.165 78.144,233.595C76.639,228.406 80.046,230.134 85.5,230.133C322.474,230.098 322.701,230.299 323.043,230.79C323.759,231.82 323.252,231.882 322.64,234.539Z" style="fill:rgb(184,36,42);"/>
            </g>
            <g transform="matrix(1.416667,0,0,1.416667,2362.47328,539.768676)">
                <path d="M300.513,278.51C295.59,284.516 293.287,288.421 289.499,288.457C287.712,288.474 112.362,288.47 111.501,288.46C109.632,288.437 106.868,288.404 95.363,271.571C93.312,268.57 96.767,269.168 123.5,269.168C305.305,269.168 305.359,269.146 305.61,269.347C307.227,270.644 302.625,275.629 300.513,278.51Z" style="fill:rgb(184,36,42);"/>
            </g>
            <g transform="matrix(1.416667,0,0,1.416667,2362.47328,539.768676)">
                <path d="M200.624,190.432C206.105,192.295 324.513,189.934 326.325,191.671C327.745,193.033 327.115,207.252 326.896,208.593C326.349,211.941 324.3,210.195 200.5,210.497C200.052,200.438 200.059,200.519 200.624,190.432Z" style="fill:rgb(184,36,42);"/>
            </g>
            <g transform="matrix(1.416667,0,0,1.416667,2362.47328,539.768676)">
                <path d="M200.646,151.416C204.963,152.825 300.677,151.659 315.538,152.062C319.686,152.174 323.866,169.929 322.927,170.87C321.397,172.403 209.983,170.684 200.86,171.769C199.733,161.578 199.727,161.604 200.646,151.416Z" style="fill:rgb(184,36,42);"/>
            </g>
            <g transform="matrix(1.416667,0,0,1.416667,2362.47328,539.768676)">
                <path d="M200.681,112.391C203.984,113.344 204.062,112.849 288.5,112.915C290.503,112.917 294.9,112.92 306.21,130.619C307.85,133.186 299.939,132.432 299.5,132.432C203.752,132.431 203.803,132.393 200.855,132.766C200.571,131.161 199.221,123.549 200.681,112.391Z" style="fill:rgb(185,39,44);"/>
            </g>
            <g transform="matrix(1.416667,0,0,1.416667,2362.47328,539.768676)">
                <path d="M135.571,307.757C142.147,308.426 258.806,308.427 265.43,307.754C265.719,308.292 266.008,308.831 266.298,309.369C263.977,310.988 240.347,323.649 218.46,326.199C191.143,329.382 167.853,326.954 135.771,310.13C135.678,310.081 135.771,310.13 134.702,309.372C134.991,308.833 135.281,308.295 135.571,307.757Z" style="fill:rgb(184,38,43);"/>
            </g>
            <g transform="matrix(1.416667,0,0,1.416667,2362.47328,539.768676)">
                <path d="M200.466,73.908C233.688,75.062 244.95,81.433 262.685,90.194C262.969,90.334 270.441,94.026 264.534,93.692C256.699,93.25 203.782,93.161 200.85,93.763C200.705,92.181 199.593,80.017 200.466,73.908Z" style="fill:rgb(184,38,43);"/>
            </g>
            <g transform="matrix(1.416667,0,0,1.416667,2362.47328,539.768676)">
                <path d="M148.069,112.999C149.542,117.318 150.56,116.48 152.447,116.643C155.265,116.887 150.397,119.493 150.886,121.5C150.937,121.708 151.974,125.969 149.415,123.743C146.565,121.266 144.753,126.23 143.617,123.475C143.053,122.106 145.705,121.118 142.364,118.588C140.336,117.052 144.33,116.711 144.561,116.691C146.239,116.547 145.982,113.959 148.069,112.999Z" style="fill:rgb(231,231,234);"/>
            </g>
            <g transform="matrix(1.416667,0,0,1.416667,2362.47328,539.768676)">
                <path d="M162.527,148.524L163.527,148.338C163.856,148.447 164.115,147.841 164.342,148.607C165.047,150.986 165.071,151.414 167.513,151.449C170.902,151.497 168.06,153.642 167.91,153.755C165.006,155.946 169.01,160.547 165.713,159.013C164.072,158.25 164.026,156.767 161.517,158.539C158.769,160.478 159.845,156.738 159.902,156.541C160.644,153.958 155.538,151.869 158.49,151.478C161.225,151.116 161.58,151.18 162.527,148.524Z" style="fill:rgb(231,231,234);"/>
            </g>
            <g transform="matrix(1.416667,0,0,1.416667,2362.47328,539.768676)">
                <path d="M185.08,116.967C185.099,117.878 185.402,117.958 184.604,118.568C181.13,121.22 183.96,122.173 183.419,123.485C182.236,126.355 180.395,121.235 177.577,123.706C174.365,126.522 176.989,120.905 175.513,119.491C175.013,119.012 174.26,118.827 173.814,118.298C172.759,117.043 176.311,116.712 176.565,116.688C179.644,116.401 178.472,111.101 180.32,113.635C180.747,114.222 179.236,116.371 185.08,116.967Z" style="fill:rgb(231,231,234);"/>
            </g>
            <g transform="matrix(1.416667,0,0,1.416667,2362.47328,539.768676)">
                <path d="M98.613,148.586L99.496,148.384C99.524,148.389 100.081,147.454 100.433,148.552C101.293,151.24 101.724,151.081 104.503,151.495C107.359,151.92 102.199,153.965 102.917,156.5C104.267,161.261 100.946,157.685 99.5,157.517C98.332,157.381 94.687,161.617 96.12,156.501C96.871,153.82 91.535,151.933 94.497,151.494C97.252,151.086 97.654,151.241 98.613,148.586Z" style="fill:rgb(232,233,235);"/>
            </g>
            <g transform="matrix(1.416667,0,0,1.416667,2362.47328,539.768676)">
                <path d="M134.739,132.553C134.805,132.825 136.099,138.087 133.411,135.787C130.5,133.295 128.735,138.199 127.554,135.487C127.339,134.995 128.972,132.877 127.516,131.488C126.078,130.116 125.253,130.284 125.852,128.924C126.074,128.422 129.403,129.427 130.159,127.252C131.861,122.356 132.673,127.911 133.54,128.443C133.834,128.623 139.685,128.427 136.065,131.07C135.243,131.671 135.465,131.741 134.739,132.553Z" style="fill:rgb(231,231,234);"/>
            </g>
            <g transform="matrix(1.416667,0,0,1.416667,2362.47328,539.768676)">
                <path d="M146.618,136.59L147.495,136.371C147.527,136.377 148.085,135.463 148.436,136.55C149.309,139.249 149.733,139.078 152.509,139.481C155.403,139.902 150.206,141.926 150.931,144.5C152.292,149.339 148.906,145.663 147.5,145.5C146.381,145.37 142.602,149.771 144.128,144.499C144.91,141.797 139.542,139.946 142.497,139.494C145.269,139.069 145.657,139.212 146.618,136.59Z" style="fill:rgb(232,233,235);"/>
            </g>
            <g transform="matrix(1.416667,0,0,1.416667,2362.47328,539.768676)">
                <path d="M130.576,148.562L131.509,148.382C131.648,148.415 132.005,147.383 132.378,148.587C133.058,150.784 132.887,151.449 135.513,151.447C139.071,151.444 136.088,153.657 135.937,153.769C133.058,155.905 136.81,158.99 134.504,159.198C132.608,159.369 132.618,156.442 129.531,158.578C126.199,160.884 129.681,155.623 127.01,153.79C122.732,150.852 128.717,152.163 129.788,150.759C129.902,150.611 129.847,150.596 130.576,148.562Z" style="fill:rgb(231,231,234);"/>
            </g>
            <g transform="matrix(1.416667,0,0,1.416667,2362.47328,539.768676)">
                <path d="M166.698,132.545C166.767,132.837 167.851,137.374 165.651,136.141C163.55,134.963 163.361,134.735 161.267,136.029C158.399,137.801 160.839,132.855 159.474,131.518C158.045,130.119 157.21,130.281 157.827,128.91C158.04,128.438 161.334,129.425 162.116,127.205C163.831,122.337 164.597,127.928 165.525,128.462C165.635,128.525 171.242,128.658 168.041,131.049C167.178,131.693 167.375,131.791 166.698,132.545Z" style="fill:rgb(230,230,233);"/>
            </g>
            <g transform="matrix(1.416667,0,0,1.416667,2362.47328,539.768676)">
                <path d="M173.744,95.375C174.8,93.443 175.184,94.042 176.638,93.883C179.644,93.556 178.139,88.458 180.267,90.685C180.843,91.287 180.667,92.308 180.985,93.079C181.417,94.127 187.385,93.646 184.177,96.183C181.339,98.426 184.741,103.038 181.607,101.245C179.546,100.066 179.382,100.046 177.354,101.191C176.897,101.449 175.092,101.754 175.767,99.531C176.539,96.992 175.734,97.041 173.744,95.375Z" style="fill:rgb(231,232,234);"/>
            </g>
            <g transform="matrix(1.416667,0,0,1.416667,2362.47328,539.768676)">
                <path d="M121.166,116.911C120.914,117.296 121.433,117.906 121.181,118.292C120.315,119.619 118.294,118.998 119.349,122.516C120.432,126.132 116.092,122.127 114.633,122.948C113.093,123.815 113.454,124.057 113.328,124.118C110.171,125.641 113.827,121.134 110.946,119.063C109.08,117.721 110.272,116.891 112.561,116.7C115.712,116.436 114.441,111.185 116.393,113.59C116.997,114.335 115.502,116.454 121.166,116.911Z" style="fill:rgb(231,232,234);"/>
            </g>
            <g transform="matrix(1.416667,0,0,1.416667,2362.47328,539.768676)">
                <path d="M162.77,170.803C164.601,170.826 164.192,171.518 164.834,173.243C165.586,175.262 171.182,173.804 167.776,176.698C165.092,178.978 168.742,181.887 166.509,182.026C164.611,182.145 164.592,179.076 161.448,181.387C159.5,182.82 159.97,180.905 160.125,178.538C160.204,177.325 156.035,174.8 158.409,174.341C160.3,173.975 161.422,175.003 162.77,170.803Z" style="fill:rgb(233,233,236);"/>
            </g>
            <g transform="matrix(1.416667,0,0,1.416667,2362.47328,539.768676)">
                <path d="M179.514,136.338L180.377,136.588C181.162,138.768 180.924,138.901 181.65,139.273C182.215,139.563 184.213,139.42 184.496,139.508C187.727,140.515 181.933,141.294 182.866,144.492C184.287,149.366 180.836,145.553 179.5,145.497C178.193,145.442 174.638,149.496 176.056,144.51C176.783,141.953 171.507,139.878 174.488,139.474C177.297,139.093 177.673,139.202 178.558,136.547C178.905,135.508 179.48,136.346 179.514,136.338Z" style="fill:rgb(235,235,237);"/>
            </g>
            <g transform="matrix(1.416667,0,0,1.416667,2362.47328,539.768676)">
                <path d="M114.641,136.603L115.488,136.372C115.756,136.417 115.879,135.846 116.147,135.891C116.407,135.936 116.672,139.322 118.505,139.483C118.513,139.484 123.923,139.018 119.985,141.785C117.476,143.548 121.101,148.416 117.474,146.563C117.079,146.361 116.815,145.956 116.424,145.745C114.782,144.86 110.888,149.032 111.752,145.518C111.943,144.74 113.233,143.355 111.069,141.77C107.141,138.893 112.67,140.25 113.836,138.822C113.956,138.675 113.896,138.657 114.641,136.603Z" style="fill:rgb(235,236,237);"/>
            </g>
            <g transform="matrix(1.416667,0,0,1.416667,2362.47328,539.768676)">
                <path d="M125.745,107.376C126.814,105.443 127.205,106.052 128.64,105.898C131.788,105.562 130.562,99.998 132.269,102.686C132.717,103.391 132.656,104.319 132.966,105.095C133.396,106.169 139.452,105.645 136.195,108.197C133.346,110.428 136.731,115.026 133.608,113.245C131.58,112.088 131.417,112.038 129.358,113.195C128.9,113.452 127.074,113.765 127.775,111.534C128.565,109.014 127.746,109.049 125.745,107.376Z" style="fill:rgb(231,232,234);"/>
            </g>
            <g transform="matrix(1.416667,0,0,1.416667,2362.47328,539.768676)">
                <path d="M141.798,95.348C143.248,92.607 145.176,95.047 146.009,93.064C146.328,92.303 146.281,91.388 146.73,90.696C146.844,90.52 147.79,89.246 148.798,92.301C149.415,94.172 149.99,93.433 152.403,93.829C152.549,93.853 154.523,94.178 152.783,95.637C149.806,98.132 151.555,98.783 151.461,100.496C151.348,102.558 150.396,101.273 148.573,100.315C146.462,99.205 142.617,103.473 143.839,99.542C144.614,97.046 143.846,97.086 141.798,95.348Z" style="fill:rgb(231,232,234);"/>
            </g>
            <g transform="matrix(1.416667,0,0,1.416667,2362.47328,539.768676)">
                <path d="M100.031,124.463C101.099,127.757 101.046,128.336 104.442,128.653C107.402,128.93 102.343,131.359 102.869,133.502C102.92,133.71 103.962,137.951 101.416,135.752C98.572,133.296 96.669,138.241 95.683,135.455C95.132,133.896 98.165,132.082 94.465,131.433C94.561,131.093 95.109,129.154 96.3,127.423C96.494,127.753 96.113,128.242 96.307,128.571C97.149,130 99.067,128.217 98.777,127.694C98.421,127.053 97.552,126.807 97.196,126.166C97.777,125.539 97.679,125.396 100.031,124.463Z" style="fill:rgb(231,231,233);"/>
            </g>
            <g transform="matrix(1.416667,0,0,1.416667,2362.47328,539.768676)">
                <path d="M77.878,186.334C78.57,185.79 77.985,185.476 78.634,184.965C78.694,184.918 78.699,184.914 79.58,184.996C83.294,185.34 81.524,181.984 83.562,181.838C84.023,181.805 84.3,181.41 84.629,182.399C84.722,182.678 84.74,182.98 84.846,183.254C86.077,186.463 91.432,184.353 88.935,186.633C85.466,189.8 87.452,190.515 87.57,191.506C87.83,193.691 86.575,192.234 84.546,191.364C82.395,190.442 78.69,194.74 80.096,190.506C80.928,188 79.736,188.267 77.878,186.334Z" style="fill:rgb(233,233,235);"/>
            </g>
            <g transform="matrix(1.416667,0,0,1.416667,2362.47328,539.768676)">
                <path d="M180.158,158.808C180.966,161.462 180.779,162.118 183.571,162.269C187.101,162.459 182.521,165.337 182.716,166.519C183.164,169.228 184.053,169.982 182.526,170.046C182.043,170.066 180.071,167.718 178.523,168.568C178.264,168.71 174.678,171.891 176.006,167.522C176.992,164.276 171.243,163.506 174.416,162.359C174.793,162.223 177.474,162.701 178.052,161.145C178.688,159.432 178.32,158.807 180.158,158.808Z" style="fill:rgb(235,236,238);"/>
            </g>
            <g transform="matrix(1.416667,0,0,1.416667,2362.47328,539.768676)">
                <path d="M166.74,109.575C166.959,111.428 167.497,114.291 165.589,113.28C163.52,112.182 163.393,111.894 161.335,113.16C158.292,115.031 161.496,110.49 158.756,108.259C157.298,107.072 157.388,105.97 159.284,106.014C163.229,106.105 162.423,100.735 164.238,102.699C164.808,103.316 164.62,104.341 164.934,105.12C165.369,106.193 171.337,105.633 168.167,108.174C167.363,108.818 167.486,108.843 166.74,109.575Z" style="fill:rgb(234,234,236);"/>
            </g>
            <g transform="matrix(1.416667,0,0,1.416667,2362.47328,539.768676)">
                <path d="M153.254,186.401C153.138,186.51 153.141,186.469 151.705,187.653C149.716,189.291 152.741,194.121 149.58,192.315C147.605,191.186 147.483,191.208 145.431,192.339C142.181,194.13 145.593,189.477 143.307,187.645C139.799,184.832 144.08,185.546 145.62,184.638C146.022,184.401 146.173,181.962 147.512,181.928C149.861,181.869 148.165,185.462 151.646,185.118C152.881,184.995 152.658,185.408 153.254,186.401Z" style="fill:rgb(234,234,236);"/>
            </g>
            <g transform="matrix(1.416667,0,0,1.416667,2362.47328,539.768676)">
                <path d="M114.582,159.557L115.466,159.151C115.573,159.185 116.145,158.305 116.516,159.488C117.159,161.542 116.964,162.193 119.564,162.275C123.872,162.412 118.61,165.179 118.844,166.533C119.238,168.82 120.245,169.743 118.536,169.734C117.541,169.728 116.141,167.689 114.55,168.639C114.162,168.871 113.875,169.245 113.499,169.497C110.468,171.525 112.681,166.493 112.149,165.646C112.112,165.588 109.244,163.546 110.434,162.403C110.567,162.275 112.832,162.327 113.279,162.142C113.99,161.847 113.779,161.666 114.582,159.557Z" style="fill:rgb(236,236,238);"/>
            </g>
            <g transform="matrix(1.416667,0,0,1.416667,2362.47328,539.768676)">
                <path d="M185.198,186.377C185.083,186.487 185.084,186.468 183.664,187.624C181.406,189.462 184.882,194.118 181.562,192.347C180.007,191.517 179.939,190.577 177.626,191.955C174.621,193.746 176.283,188.99 176.106,188.631C176.09,188.597 171.61,184.757 175.356,185.112C178.92,185.45 178.961,179.81 180.217,181.738C180.674,182.44 180.634,183.364 180.941,184.143C181.357,185.199 183.214,185.018 183.423,184.997C184.315,184.91 184.313,184.909 184.374,184.956C185.101,185.522 184.516,185.847 185.198,186.377Z" style="fill:rgb(234,235,237);"/>
            </g>
            <g transform="matrix(1.416667,0,0,1.416667,2362.47328,539.768676)">
                <path d="M120.676,185.292L120.896,186.624C117.427,189.7 119.395,190.629 119.509,191.501C119.553,191.835 118.917,193.082 117.597,192.282C115.635,191.092 115.492,191.293 113.44,192.355C110.333,193.963 113.64,189.437 111.33,187.63C111.163,187.5 107.463,184.606 111.579,184.999C114.996,185.325 113.334,181.986 115.529,181.912C116.044,181.895 116.278,181.53 116.57,182.45C117.124,184.201 117.039,184.68 120.676,185.292Z" style="fill:rgb(234,234,236);"/>
            </g>
            <g transform="matrix(1.416667,0,0,1.416667,2362.47328,539.768676)">
                <path d="M146.841,158.829C148.701,158.783 148.312,159.467 148.931,161.168C149.494,162.716 152.149,162.21 152.58,162.374C155.739,163.576 150.009,164.315 150.981,167.507C152.299,171.834 149.082,168.967 148.46,168.614C146.81,167.678 144.997,170.064 144.471,170.037C143.012,169.965 143.853,169.25 144.281,166.523C144.462,165.37 139.822,162.433 143.43,162.27C146.213,162.145 146.01,161.484 146.841,158.829Z" style="fill:rgb(237,237,239);"/>
            </g>
            <g transform="matrix(1.416667,0,0,1.416667,2362.47328,539.768676)">
                <path d="M130.814,170.831C132.153,170.819 132.055,170.777 132.153,170.819C133.568,171.412 131.536,174.088 135.57,174.263C139.496,174.434 133.994,176.524 134.921,179.499C136.255,183.783 133.093,181.02 132.452,180.634C130.718,179.593 128.934,182.056 128.448,182.047C126.333,182.011 129.652,178.645 127.149,176.745C126.99,176.624 124.024,174.373 127.433,174.266C130.222,174.179 129.975,173.457 130.814,170.831Z" style="fill:rgb(238,238,240);"/>
            </g>
            <g transform="matrix(1.416667,0,0,1.416667,2362.47328,539.768676)">
                <path d="M98.56,171.544L99.488,171.189C99.637,171.237 100.108,170.281 100.487,171.51C101.177,173.753 101.125,174.178 103.568,174.268C107.427,174.41 102.752,176.996 102.784,178.53C102.832,180.815 103.596,182.552 101.519,181.454C101.119,181.242 100.859,180.822 100.467,180.595C98.66,179.549 95.033,183.892 95.659,180.502C96.083,178.204 96.188,178.087 94.597,176.418C93.366,175.127 93.64,174.338 95.43,174.265C98.001,174.159 97.794,173.532 98.56,171.544Z" style="fill:rgb(237,237,239);"/>
            </g>
            <g transform="matrix(1.416667,0,0,1.416667,2362.47328,539.768676)">
                <path d="M79.998,162.32C80.249,162.346 80.069,162.979 80.319,163.005C82.645,163.247 83.315,156.154 84.807,160.282C86.092,163.835 91.703,161.789 89.041,164.112C88.707,164.403 88.239,164.497 87.878,164.752C85.859,166.182 88.936,171.373 85.554,169.378C83.585,168.216 83.447,168.336 81.513,169.534L80.315,168.593C80.52,165.987 81.447,164.694 78.841,164.81C79.226,163.98 79.612,163.15 79.998,162.32Z" style="fill:rgb(235,235,237);"/>
            </g>
            <g transform="matrix(1.416667,0,0,1.416667,2362.47328,539.768676)">
                <path d="M97.196,126.166C97.552,126.807 98.421,127.053 98.777,127.694C99.067,128.217 97.149,130 96.307,128.571C96.113,128.242 96.494,127.753 96.3,127.423C96.599,127.004 96.897,126.585 97.196,126.166Z" style="fill:rgb(153,149,163);"/>
            </g>
            <g transform="matrix(1.416667,0,0,1.416667,2362.47328,539.768676)">
                <path d="M80.315,168.593L81.513,169.534C81.358,169.578 79.576,170.077 79.576,170.077C79.467,170.002 79.628,169.973 80.315,168.593Z" style="fill:rgb(153,155,169);"/>
            </g>
            <g transform="matrix(1.416667,0,0,1.416667,2362.47328,539.768676)">
                <path d="M265.43,307.754C266.296,308.312 266.256,308.372 266.298,309.369C266.008,308.831 265.719,308.292 265.43,307.754Z" style="fill:rgb(226,164,164);"/>
            </g>
            <g transform="matrix(1.416667,0,0,1.416667,-1112.476051,-358.899222)">
                <g transform="matrix(0.465078,0.79379,-0.862815,0.505519,2094.127184,-1557.947015)">
                    <text x="2537.449px" y="887.936px" style="font-family:'ArialMT', 'Arial', sans-serif;font-size:36px;">M</text>
                </g>
                <g transform="matrix(0.614236,0.684919,-0.744477,0.667648,1638.452219,-1422.121344)">
                    <text x="2552.187px" y="912.347px" style="font-family:'ArialMT', 'Arial', sans-serif;font-size:36px;">A</text>
                </g>
                <g transform="matrix(0.732131,0.557121,-0.605567,0.795795,1230.078899,-1213.569054)">
                    <text x="2567.562px" y="929.54px" style="font-family:'ArialMT', 'Arial', sans-serif;font-size:36px;">D</text>
                </g>
                <g transform="matrix(0.823156,0.41087,-0.446597,0.894735,864.211134,-933.246546)">
                    <text x="2587.424px" y="944.532px" style="font-family:'ArialMT', 'Arial', sans-serif;font-size:36px;">E</text>
                </g>
                <g transform="matrix(0.890208,0.23223,-0.252423,0.967617,520.576339,-544.009376)">
                    <text x="2617.763px" y="957.708px" style="font-family:'ArialMT', 'Arial', sans-serif;font-size:36px;">I</text>
                </g>
                <g transform="matrix(0.913483,0.109313,-0.118819,0.992916,337.426455,-246.649618)">
                    <text x="2627.44px" y="960.682px" style="font-family:'ArialMT', 'Arial', sans-serif;font-size:36px;">N</text>
                </g>
                <g transform="matrix(0.911694,-0.123346,0.134071,0.990972,110.459199,370.691277)">
                    <text x="2661.645px" y="963.208px" style="font-family:'ArialMT', 'Arial', sans-serif;font-size:36px;">T</text>
                </g>
                <g transform="matrix(0.874742,-0.285001,0.309784,0.950807,49.015764,844.125381)">
                    <text x="2682.62px" y="960.461px" style="font-family:'ArialMT', 'Arial', sans-serif;font-size:36px;">H</text>
                </g>
                <g transform="matrix(0.804296,-0.446663,0.485503,0.874235,83.633148,1358.307001)">
                    <text x="2706.243px" y="952.612px" style="font-family:'ArialMT', 'Arial', sans-serif;font-size:36px;">E</text>
                </g>
                <g transform="matrix(0.661105,-0.639797,0.695432,0.718592,299.864874,2037.233456)">
                    <text x="2734.568px" y="935.408px" style="font-family:'ArialMT', 'Arial', sans-serif;font-size:36px;">U</text>
                </g>
                <g transform="matrix(0.531597,-0.750869,0.816162,0.577823,567.731902,2473.822378)">
                    <text x="2752.318px" y="917.969px" style="font-family:'ArialMT', 'Arial', sans-serif;font-size:36px;">S</text>
                </g>
                <g transform="matrix(0.387521,-0.834402,0.906959,0.421219,909.220336,2842.294277)">
                    <text x="2765.553px" y="899.112px" style="font-family:'ArialMT', 'Arial', sans-serif;font-size:36px;">A</text>
                </g>
            </g>
            <g transform="matrix(1.416667,0,0,1.416667,-1112.476051,-358.899222)">
                <g transform="matrix(0.441786,-0.806985,0.877158,0.480202,713.461209,2448.582737)">
                    <text x="2535.97px" y="786.487px" style="font-family:'ArialMT', 'Arial', sans-serif;font-size:36px;">M</text>
                </g>
                <g transform="matrix(0.594335,-0.702258,0.763324,0.646016,442.386105,2051.325025)">
                    <text x="2550.007px" y="761.637px" style="font-family:'ArialMT', 'Arial', sans-serif;font-size:36px;">A</text>
                </g>
                <g transform="matrix(0.715812,-0.577939,0.628195,0.778056,252.728506,1636.580874)">
                    <text x="2564.88px" y="744.014px" style="font-family:'ArialMT', 'Arial', sans-serif;font-size:36px;">D</text>
                </g>
                <g transform="matrix(0.810967,-0.434434,0.472211,0.881486,137.930763,1196.705438)">
                    <text x="2584.319px" y="728.446px" style="font-family:'ArialMT', 'Arial', sans-serif;font-size:36px;">E</text>
                </g>
                <g transform="matrix(0.882956,-0.258434,0.280906,0.959735,101.35724,690.927142)">
                    <text x="2614.198px" y="714.421px" style="font-family:'ArialMT', 'Arial', sans-serif;font-size:36px;">I</text>
                </g>
                <g transform="matrix(0.909961,-0.135542,0.147328,0.989088,129.416271,349.555447)">
                    <text x="2623.856px" y="711.143px" style="font-family:'ArialMT', 'Arial', sans-serif;font-size:36px;">N</text>
                </g>
                <g transform="matrix(0.914905,0.096685,-0.105093,0.994462,302.013408,-266.985208)">
                    <text x="2657.914px" y="707.642px" style="font-family:'ArialMT', 'Arial', sans-serif;font-size:36px;">T</text>
                </g>
                <g transform="matrix(0.882655,0.259462,-0.282024,0.959407,518.492845,-679.720179)">
                    <text x="2679.007px" y="709.783px" style="font-family:'ArialMT', 'Arial', sans-serif;font-size:36px;">H</text>
                </g>
                <g transform="matrix(0.816821,0.423325,-0.460136,0.887849,831.442658,-1076.210837)">
                    <text x="2702.859px" y="716.947px" style="font-family:'ArialMT', 'Arial', sans-serif;font-size:36px;">E</text>
                </g>
                <g transform="matrix(0.679402,0.620333,-0.674275,0.73848,1379.629042,-1513.079135)">
                    <text x="2731.614px" y="733.29px" style="font-family:'ArialMT', 'Arial', sans-serif;font-size:36px;">U</text>
                </g>
                <g transform="matrix(0.553283,0.735036,-0.798953,0.601394,1838.969054,-1730.629731)">
                    <text x="2749.857px" y="750.201px" style="font-family:'ArialMT', 'Arial', sans-serif;font-size:36px;">S</text>
                </g>
                <g transform="matrix(0.411808,0.822687,-0.894225,0.447617,2325.442238,-1855.278089)">
                    <text x="2763.644px" y="768.676px" style="font-family:'ArialMT', 'Arial', sans-serif;font-size:36px;">A</text>
                </g>
            </g>
            <g transform="matrix(1.753968,0,0,2.087719,-1949.725133,-777.792588)">
                <path d="M2496.5,759L2499.565,764.684L2506.486,765.564L2501.459,769.958L2502.672,776.186L2496.5,773.217L2490.328,776.186L2491.541,769.958L2486.514,765.564L2493.435,764.684L2496.5,759Z"/>
            </g>
            <g transform="matrix(1.753968,0,0,2.087719,-1938.391799,-828.060271)">
                <path d="M2496.5,759L2499.565,764.684L2506.486,765.564L2501.459,769.958L2502.672,776.186L2496.5,773.217L2490.328,776.186L2491.541,769.958L2486.514,765.564L2493.435,764.684L2496.5,759Z"/>
            </g>
            <g transform="matrix(1.753968,0,0,2.087719,-1938.391799,-726.792588)">
                <path d="M2496.5,759L2499.565,764.684L2506.486,765.564L2501.459,769.958L2502.672,776.186L2496.5,773.217L2490.328,776.186L2491.541,769.958L2486.514,765.564L2493.435,764.684L2496.5,759Z"/>
            </g>
            <g transform="matrix(1.753968,0,0,2.087719,-1524.725133,-726.792588)">
                <path d="M2496.5,759L2499.565,764.684L2506.486,765.564L2501.459,769.958L2502.672,776.186L2496.5,773.217L2490.328,776.186L2491.541,769.958L2486.514,765.564L2493.435,764.684L2496.5,759Z"/>
            </g>
            <g transform="matrix(1.753968,0,0,2.087719,-1524.725133,-827.375921)">
                <path d="M2496.5,759L2499.565,764.684L2506.486,765.564L2501.459,769.958L2502.672,776.186L2496.5,773.217L2490.328,776.186L2491.541,769.958L2486.514,765.564L2493.435,764.684L2496.5,759Z"/>
            </g>
            <g transform="matrix(1.753968,0,0,2.087719,-1513.391799,-777.792588)">
                <path d="M2496.5,759L2499.565,764.684L2506.486,765.564L2501.459,769.958L2502.672,776.186L2496.5,773.217L2490.328,776.186L2491.541,769.958L2486.514,765.564L2493.435,764.684L2496.5,759Z"/>
            </g>
        </g>
    </g>
</svg>
