<?xml version="1.0" encoding="UTF-8" standalone="no"?>
<!DOCTYPE svg PUBLIC "-//W3C//DTD SVG 1.1//EN" "http://www.w3.org/Graphics/SVG/1.1/DTD/svg11.dtd">
<svg width="100%" height="100%" viewBox="0 0 1561 160" version="1.1" xmlns="http://www.w3.org/2000/svg" xmlns:xlink="http://www.w3.org/1999/xlink" xml:space="preserve" xmlns:serif="http://www.serif.com/" style="fill-rule:evenodd;clip-rule:evenodd;stroke-linejoin:round;stroke-miterlimit:2;">
    <g id="Artboard8" transform="matrix(1,0,0,1,22,740)">
        <rect x="-22" y="-740" width="1561" height="160" style="fill:none;"/>
        <g transform="matrix(4.155884,0,0,4.155884,-786.738937,-1251.475435)" fill="#ac8b49">
            <path d="M195.12,133.733L203.062,133.733C204.792,133.733 206.087,134.19 206.949,135.104C207.81,136.018 208.241,137.318 208.241,139.006C208.241,140.74 207.771,142.096 206.833,143.072C205.894,144.049 204.461,144.537 202.535,144.537L199.919,144.537L199.919,150.912L195.12,150.912L195.12,133.733ZM199.919,141.057L201.09,141.057C202.011,141.057 202.658,140.879 203.03,140.524C203.403,140.168 203.589,139.713 203.589,139.158C203.589,138.619 203.428,138.162 203.104,137.787C202.781,137.412 202.173,137.225 201.28,137.225L199.919,137.225L199.919,141.057Z" style="fill-rule:nonzero;"/>
            <path d="M209.163,133.733L213.941,133.733L213.941,146.682L221.398,146.682L221.398,150.912L209.163,150.912L209.163,133.733Z" style="fill-rule:nonzero;"/>
            <path d="M231.507,148.076L226.065,148.076L225.316,150.912L220.433,150.912L226.244,133.733L231.454,133.733L237.266,150.912L232.266,150.912L231.507,148.076ZM230.505,144.361L228.796,138.186L227.098,144.361L230.505,144.361Z" style="fill-rule:nonzero;"/>
            <path d="M237.25,133.733L241.711,133.733L247.533,143.236L247.533,133.733L252.036,133.733L252.036,150.912L247.533,150.912L241.743,141.479L241.743,150.912L237.25,150.912L237.25,133.733Z" style="fill-rule:nonzero;"/>
            <path d="M252.548,133.733L267.071,133.733L267.071,137.975L262.198,137.975L262.198,150.912L257.421,150.912L257.421,137.975L252.548,137.975L252.548,133.733Z" style="fill-rule:nonzero;"/>
            <path d="M273.294,133.733L282.237,133.733C283.728,133.733 284.872,134.143 285.67,134.963C286.468,135.783 286.867,136.799 286.867,138.01C286.867,139.026 286.583,139.897 286.013,140.623C285.633,141.108 285.078,141.49 284.347,141.772C285.458,142.068 286.275,142.578 286.799,143.301C287.323,144.024 287.585,144.932 287.585,146.026C287.585,146.916 287.398,147.717 287.026,148.428C286.653,149.139 286.143,149.701 285.496,150.115C285.095,150.373 284.491,150.561 283.682,150.678C282.606,150.834 281.893,150.912 281.541,150.912L273.294,150.912L273.294,133.733ZM278.113,140.471L280.191,140.471C280.936,140.471 281.455,140.328 281.747,140.043C282.039,139.758 282.185,139.346 282.185,138.807C282.185,138.307 282.039,137.916 281.747,137.635C281.455,137.354 280.947,137.213 280.223,137.213L278.113,137.213L278.113,140.471ZM278.113,147.221L280.55,147.221C281.372,147.221 281.953,147.059 282.29,146.735C282.628,146.41 282.796,145.975 282.796,145.428C282.796,144.92 282.629,144.512 282.295,144.203C281.961,143.895 281.376,143.74 280.539,143.74L278.113,143.74L278.113,147.221Z" style="fill-rule:nonzero;"/>
            <path d="M297.651,148.076L292.209,148.076L291.46,150.912L286.577,150.912L292.389,133.733L297.599,133.733L303.41,150.912L298.411,150.912L297.651,148.076ZM296.65,144.361L294.941,138.186L293.243,144.361L296.65,144.361Z" style="fill-rule:nonzero;"/>
            <path d="M302.529,145.229L307.075,144.912C307.174,145.733 307.374,146.358 307.676,146.787C308.168,147.483 308.872,147.83 309.786,147.83C310.468,147.83 310.993,147.652 311.362,147.297C311.732,146.942 311.916,146.529 311.916,146.061C311.916,145.615 311.74,145.217 311.389,144.865C311.037,144.514 310.222,144.182 308.942,143.869C306.847,143.346 305.352,142.651 304.459,141.783C303.559,140.916 303.109,139.811 303.109,138.467C303.109,137.584 303.34,136.75 303.8,135.965C304.261,135.18 304.953,134.563 305.878,134.113C306.803,133.664 308.07,133.44 309.68,133.44C311.656,133.44 313.162,133.848 314.199,134.664C315.237,135.481 315.854,136.779 316.05,138.561L311.547,138.854C311.427,138.08 311.176,137.518 310.793,137.166C310.41,136.815 309.881,136.639 309.206,136.639C308.65,136.639 308.232,136.77 307.95,137.031C307.669,137.293 307.529,137.611 307.529,137.986C307.529,138.26 307.645,138.506 307.877,138.725C308.102,138.951 308.636,139.162 309.48,139.358C311.568,139.858 313.064,140.363 313.967,140.875C314.871,141.387 315.528,142.022 315.94,142.779C316.351,143.537 316.557,144.385 316.557,145.322C316.557,146.424 316.283,147.44 315.734,148.369C315.186,149.299 314.419,150.004 313.435,150.485C312.45,150.965 311.209,151.205 309.712,151.205C307.082,151.205 305.261,150.643 304.249,149.518C303.236,148.393 302.663,146.963 302.529,145.229Z" style="fill-rule:nonzero;"/>
            <path d="M317.374,133.733L330.178,133.733L330.178,137.401L322.162,137.401L322.162,140.131L329.598,140.131L329.598,143.635L322.162,143.635L322.162,147.022L330.41,147.022L330.41,150.912L317.374,150.912L317.374,133.733Z" style="fill-rule:nonzero;"/>
            <path d="M331.47,133.733L338.568,133.733C339.967,133.733 341.097,133.943 341.959,134.365C342.82,134.787 343.532,135.393 344.095,136.182C344.657,136.971 345.065,137.889 345.318,138.936C345.571,139.983 345.698,141.092 345.698,142.264C345.698,144.1 345.51,145.524 345.133,146.535C344.757,147.547 344.235,148.395 343.567,149.078C342.899,149.762 342.182,150.217 341.416,150.443C340.368,150.756 339.419,150.912 338.568,150.912L331.47,150.912L331.47,133.733ZM336.248,137.623L336.248,147.01L337.418,147.01C338.417,147.01 339.127,146.887 339.549,146.641C339.971,146.395 340.301,145.965 340.54,145.352C340.779,144.738 340.899,143.744 340.899,142.369C340.899,140.549 340.632,139.303 340.097,138.631C339.563,137.959 338.677,137.623 337.439,137.623L336.248,137.623Z" style="fill-rule:nonzero;"/>
            <path d="M352.237,133.733L360.178,133.733C361.908,133.733 363.204,134.19 364.065,135.104C364.926,136.018 365.357,137.318 365.357,139.006C365.357,140.74 364.888,142.096 363.949,143.072C363.01,144.049 361.578,144.537 359.651,144.537L357.035,144.537L357.035,150.912L352.237,150.912L352.237,133.733ZM357.035,141.057L358.206,141.057C359.127,141.057 359.774,140.879 360.147,140.524C360.519,140.168 360.706,139.713 360.706,139.158C360.706,138.619 360.544,138.162 360.221,137.787C359.897,137.412 359.289,137.225 358.396,137.225L357.035,137.225L357.035,141.057Z" style="fill-rule:nonzero;"/>
            <path d="M366.343,150.912L366.343,133.733L374.306,133.733C375.782,133.733 376.911,133.873 377.691,134.154C378.472,134.436 379.101,134.957 379.579,135.719C380.057,136.481 380.297,137.408 380.297,138.502C380.297,139.455 380.114,140.277 379.748,140.969C379.382,141.66 378.88,142.221 378.24,142.651C377.832,142.924 377.273,143.151 376.563,143.33C377.132,143.541 377.547,143.752 377.807,143.963C377.983,144.104 378.238,144.404 378.572,144.865C378.906,145.326 379.129,145.682 379.242,145.932L381.552,150.912L376.152,150.912L373.599,145.662C373.276,144.983 372.988,144.541 372.734,144.338C372.39,144.072 372,143.94 371.564,143.94L371.142,143.94L371.142,150.912L366.343,150.912ZM371.142,140.693L373.156,140.693C373.374,140.693 373.796,140.615 374.422,140.459C374.738,140.389 374.997,140.209 375.197,139.92C375.398,139.631 375.498,139.299 375.498,138.924C375.498,138.369 375.34,137.943 375.023,137.647C374.707,137.35 374.113,137.201 373.241,137.201L371.142,137.201L371.142,140.693Z" style="fill-rule:nonzero;"/>
            <path d="M380.534,142.334C380.534,139.529 381.237,137.346 382.643,135.783C384.049,134.221 386.008,133.44 388.518,133.44C391.091,133.44 393.074,134.207 394.466,135.742C395.858,137.277 396.555,139.428 396.555,142.193C396.555,144.201 396.25,145.848 395.642,147.133C395.034,148.418 394.155,149.418 393.005,150.133C391.856,150.848 390.423,151.205 388.708,151.205C386.964,151.205 385.521,150.897 384.378,150.279C383.236,149.662 382.309,148.686 381.599,147.35C380.889,146.014 380.534,144.342 380.534,142.334ZM385.312,142.358C385.312,144.092 385.602,145.338 386.182,146.096C386.762,146.854 387.551,147.233 388.549,147.233C389.576,147.233 390.371,146.861 390.933,146.119C391.496,145.377 391.777,144.045 391.777,142.123C391.777,140.506 391.483,139.324 390.896,138.578C390.309,137.832 389.513,137.459 388.507,137.459C387.544,137.459 386.771,137.838 386.187,138.596C385.603,139.354 385.312,140.608 385.312,142.358Z" style="fill-rule:nonzero;"/>
            <path d="M395.906,133.733L410.429,133.733L410.429,137.975L405.556,137.975L405.556,150.912L400.778,150.912L400.778,137.975L395.906,137.975L395.906,133.733Z" style="fill-rule:nonzero;"/>
            <path d="M411.004,133.733L423.808,133.733L423.808,137.401L415.792,137.401L415.792,140.131L423.227,140.131L423.227,143.635L415.792,143.635L415.792,147.022L424.04,147.022L424.04,150.912L411.004,150.912L411.004,133.733Z" style="fill-rule:nonzero;"/>
            <rect x="425.226" y="133.733" width="4.788" height="17.18" style="fill-rule:nonzero;"/>
            <path d="M431.897,133.733L436.358,133.733L442.18,143.236L442.18,133.733L446.684,133.733L446.684,150.912L442.18,150.912L436.39,141.479L436.39,150.912L431.897,150.912L431.897,133.733Z" style="fill-rule:nonzero;"/>
            <path d="M453.887,133.733L461.829,133.733C463.559,133.733 464.854,134.19 465.715,135.104C466.577,136.018 467.007,137.318 467.007,139.006C467.007,140.74 466.538,142.096 465.599,143.072C464.661,144.049 463.228,144.537 461.302,144.537L458.686,144.537L458.686,150.912L453.887,150.912L453.887,133.733ZM458.686,141.057L459.857,141.057C460.778,141.057 461.425,140.879 461.797,140.524C462.17,140.168 462.356,139.713 462.356,139.158C462.356,138.619 462.194,138.162 461.871,137.787C461.548,137.412 460.939,137.225 460.046,137.225L458.686,137.225L458.686,141.057Z" style="fill-rule:nonzero;"/>
            <path d="M467.329,142.334C467.329,139.529 468.032,137.346 469.438,135.783C470.845,134.221 472.803,133.44 475.313,133.44C477.886,133.44 479.869,134.207 481.261,135.742C482.654,137.277 483.35,139.428 483.35,142.193C483.35,144.201 483.046,145.848 482.437,147.133C481.829,148.418 480.95,149.418 479.801,150.133C478.651,150.848 477.218,151.205 475.503,151.205C473.759,151.205 472.316,150.897 471.173,150.279C470.031,149.662 469.104,148.686 468.394,147.35C467.684,146.014 467.329,144.342 467.329,142.334ZM472.107,142.358C472.107,144.092 472.397,145.338 472.977,146.096C473.557,146.854 474.346,147.233 475.345,147.233C476.371,147.233 477.166,146.861 477.728,146.119C478.291,145.377 478.572,144.045 478.572,142.123C478.572,140.506 478.278,139.324 477.691,138.578C477.104,137.832 476.308,137.459 475.302,137.459C474.339,137.459 473.566,137.838 472.982,138.596C472.399,139.354 472.107,140.608 472.107,142.358Z" style="fill-rule:nonzero;"/>
            <path d="M482.385,133.733L486.92,133.733L488.555,143.33L490.938,133.733L495.463,133.733L497.857,143.33L499.492,133.733L504.006,133.733L500.599,150.912L495.916,150.912L493.206,140.096L490.506,150.912L485.823,150.912L482.385,133.733Z" style="fill-rule:nonzero;"/>
            <path d="M504.064,133.733L511.162,133.733C512.561,133.733 513.691,133.943 514.553,134.365C515.414,134.787 516.126,135.393 516.688,136.182C517.251,136.971 517.659,137.889 517.912,138.936C518.165,139.983 518.291,141.092 518.291,142.264C518.291,144.1 518.103,145.524 517.727,146.535C517.351,147.547 516.829,148.395 516.161,149.078C515.493,149.762 514.776,150.217 514.009,150.443C512.962,150.756 512.013,150.912 511.162,150.912L504.064,150.912L504.064,133.733ZM508.841,137.623L508.841,147.01L510.012,147.01C511.011,147.01 511.721,146.887 512.143,146.641C512.564,146.395 512.895,145.965 513.134,145.352C513.373,144.738 513.493,143.744 513.493,142.369C513.493,140.549 513.225,139.303 512.691,138.631C512.157,137.959 511.271,137.623 510.033,137.623L508.841,137.623Z" style="fill-rule:nonzero;"/>
            <path d="M519.214,133.733L532.018,133.733L532.018,137.401L524.003,137.401L524.003,140.131L531.438,140.131L531.438,143.635L524.003,143.635L524.003,147.022L532.25,147.022L532.25,150.912L519.214,150.912L519.214,133.733Z" style="fill-rule:nonzero;"/>
            <path d="M533.31,150.912L533.31,133.733L541.273,133.733C542.75,133.733 543.878,133.873 544.659,134.154C545.439,134.436 546.068,134.957 546.546,135.719C547.025,136.481 547.264,137.408 547.264,138.502C547.264,139.455 547.081,140.277 546.715,140.969C546.35,141.66 545.847,142.221 545.207,142.651C544.799,142.924 544.24,143.151 543.53,143.33C544.1,143.541 544.514,143.752 544.775,143.963C544.95,144.104 545.205,144.404 545.539,144.865C545.873,145.326 546.096,145.682 546.209,145.932L548.519,150.912L543.119,150.912L540.566,145.662C540.243,144.983 539.955,144.541 539.702,144.338C539.357,144.072 538.967,143.94 538.531,143.94L538.109,143.94L538.109,150.912L533.31,150.912ZM538.109,140.693L540.123,140.693C540.341,140.693 540.763,140.615 541.389,140.459C541.705,140.389 541.964,140.209 542.164,139.92C542.365,139.631 542.465,139.299 542.465,138.924C542.465,138.369 542.307,137.943 541.99,137.647C541.674,137.35 541.08,137.201 540.208,137.201L538.109,137.201L538.109,140.693Z" style="fill-rule:nonzero;"/>
        </g>
    </g>
</svg>
