<?xml version="1.0" encoding="UTF-8" standalone="no"?>
<!DOCTYPE svg PUBLIC "-//W3C//DTD SVG 1.1//EN" "http://www.w3.org/Graphics/SVG/1.1/DTD/svg11.dtd">
<svg width="100%" height="100%" viewBox="0 0 585 574" version="1.1" xmlns="http://www.w3.org/2000/svg" xmlns:xlink="http://www.w3.org/1999/xlink" xml:space="preserve" xmlns:serif="http://www.serif.com/" style="fill-rule:evenodd;clip-rule:evenodd;stroke-linejoin:round;stroke-miterlimit:2;">
    <g transform="matrix(1,0,0,1,-22,-740)">
        <g id="Artboard3" transform="matrix(0.968543,0,0,0.99308,141.130795,1314)">
            <rect x="-123" y="-578" width="604" height="578" style="fill:none;"/>
            <g transform="matrix(1.032479,0,0,1.006969,-1173.576919,-1530.825795)">
                <g transform="matrix(1,0,0,1,987,920)">
                    <path d="M343.166,409.679C342.97,409.677 342.772,409.675 342.574,409.673C341.75,407.604 341.774,407.609 341.684,407.439C306.234,340.797 245.466,330.084 242.88,327.149C240.794,324.781 239.903,309.072 239.812,307.482C238.287,280.601 239.836,244.787 263.03,216.108C267.448,210.645 269.831,211.31 268.898,204.437C266.25,184.931 277.733,172.143 288.483,171.343C307.753,169.91 317.57,191.931 317.82,192.151C318.172,192.462 351.035,195.773 379.07,225.91C392.622,240.477 392.641,241.504 391.321,244.416C388.333,251.009 372.789,285.299 370.657,332.507C368.393,382.635 379.465,398.26 386.351,408.796L395.017,414.985L394.804,415.283C395.25,416.044 395.249,416.187 396.262,416.74C405.219,421.629 405.691,420.166 415.635,422.254C417.81,422.711 414.488,427.241 411.092,432.214C392.875,458.89 358.522,463.25 357.327,458.553C354.326,446.754 357.316,445.768 346.093,416.867L345.81,417L342.511,409.986L343.166,409.679ZM349.746,415.149C349.748,415.149 349.749,415.149 349.751,415.148L349.751,415.147L349.746,415.149Z" style="fill:rgb(172,139,73);"/>
                </g>
                <g transform="matrix(1,0,0,1,987,920)">
                    <path d="M398.607,409.919C397.854,408.264 398.062,408.181 397.3,407.75C394.88,406.378 394.86,406.456 394.681,406.298C356.517,372.579 389.126,257.668 415.89,233.941C444.567,208.518 484.988,295.191 470.901,373.566C465.545,403.368 455.864,404.248 454.382,409.883C419.918,409.461 399.736,409.88 398.607,409.919Z" style="fill:rgb(172,139,73);"/>
                </g>
                <g transform="matrix(1,0,0,1,987,920)">
                    <path d="M280.76,418.984L280.602,419.195L268.145,409.853L267.564,409.86C266.665,409.076 266.781,409.076 265.841,408.358C253.348,398.81 253.226,399.065 241.127,388.942C228.369,378.267 229.1,377.618 224.411,373.648C216.586,367.021 223.646,376.162 223.785,376.333C244.852,402.012 249.283,405.795 251.419,407.851L251.437,407.825L261.356,414.578L261.142,414.892L261.554,414.879C260.401,417.667 262.283,417.133 268.224,421.853C290.347,439.433 320.478,453.998 342.492,466.507L342.48,467.493C342.456,467.769 343.129,467.763 343.105,468.039C343.102,468.075 342.162,468.374 341.47,468.269C322.445,465.387 306.726,464.416 279.617,455.168C246.111,443.739 224.267,424.982 217.157,417.493L217.124,417.528L208.742,409.818L208.612,409.819L208.54,409.632L208.292,409.404L208.401,409.286C204.967,400.905 199.864,403.047 182.013,368.751C173.989,353.335 168.257,335.266 168.502,333.5C169.013,329.815 222.282,326.278 262.63,345.207C309.407,367.152 323.681,393.342 332.341,407.331L332.622,407.192L336.49,415.005C336.857,415.002 337.225,414.998 337.595,414.994C337.594,416.57 349.459,444.73 349.75,454.502C349.837,457.443 342.795,456.544 340.703,455.179C307.68,433.627 292.514,427.64 280.76,418.984ZM283,409.73L282.973,409.73L283,409.751L283,409.73ZM219.199,415.272C219.519,415.23 219.849,415.193 220.19,415.16L219.437,415.014L219.199,415.272Z" style="fill:rgb(172,139,73);"/>
                </g>
                <g transform="matrix(1,0,0,1,987,917)">
                    <path d="M231.82,302.001C228.522,294.753 228.186,287.461 207.467,262.543C184.279,234.655 214.459,270.729 227.039,304.675C234.657,325.234 235.302,326.776 233.499,326.511C233.464,326.506 220.559,318.818 218.971,316.195C207.589,297.397 207.848,297.099 191.772,282.198C183.209,274.26 180.034,217.192 187.479,220.552C211.999,231.618 235.585,261.971 234.321,269.474C232.559,279.938 232.322,279.876 232.273,290.497C232.239,297.885 234.828,298.459 231.82,302.001Z" style="fill:rgb(172,139,73);"/>
                </g>
                <g transform="matrix(1,0,0,1,987,920)">
                    <path d="M208.774,322.612L208.432,323.314C189.775,323.276 174.446,323.987 155.633,308.346C152.461,305.709 134.998,287.216 141.458,285.38C174.566,275.972 194.443,293.769 198.078,296.961C204.913,302.962 217.762,321.585 207.439,317.655C189.345,310.765 183.891,310.24 168.7,301.077C168.349,300.865 150.488,290.091 163.614,300.397C186.534,318.39 208.973,320.479 209.23,321.736C209.296,322.059 208.708,322.29 208.774,322.612Z" style="fill:rgb(172,139,73);"/>
                </g>
            </g>
            <g transform="matrix(0.97215,0,0,0.948131,-1185.412756,-1545.747297)">
                <path d="M1610.504,1375.17C1614.042,1359.807 1615.911,1343.809 1615.911,1327.378C1615.911,1210.145 1520.733,1114.967 1403.5,1114.967C1286.267,1114.967 1191.089,1210.145 1191.089,1327.378C1191.089,1344.948 1193.227,1362.023 1197.256,1378.357L1108.658,1378.357C1105.597,1361.197 1104,1343.534 1104,1325.5C1104,1160.201 1238.201,1026 1403.5,1026C1568.799,1026 1703,1160.201 1703,1325.5C1703,1342.419 1701.594,1359.013 1698.892,1375.17L1610.504,1375.17ZM1145.92,1268.965L1138.95,1285.767L1120.164,1286.944L1134.642,1298.506L1130.002,1316.036L1145.92,1306.379L1161.839,1316.036L1157.199,1298.506L1171.677,1286.944L1152.891,1285.767L1145.92,1268.965ZM1656.77,1265.779L1649.799,1282.581L1631.013,1283.758L1645.491,1295.32L1640.851,1312.85L1656.77,1303.193L1672.688,1312.85L1668.049,1295.32L1682.527,1283.758L1663.741,1282.581L1656.77,1265.779ZM1225.488,1174.214L1245.425,1152.974L1239.942,1147.828L1227.563,1161.017L1203.774,1138.688L1196.217,1146.739L1225.488,1174.214ZM1252.222,1146.001L1261.65,1139.327L1259.228,1130.501L1271.798,1121.602L1279.318,1126.818L1288.864,1120.06L1252.208,1096.823L1242.603,1103.623L1252.222,1146.001ZM1257.134,1123.395L1255.759,1118.434C1255.276,1116.746 1254.782,1115.001 1254.277,1113.198C1253.772,1111.396 1253.3,1109.765 1252.861,1108.306L1252.979,1108.222C1254.194,1109.184 1255.564,1110.218 1257.089,1111.325C1258.614,1112.431 1260.068,1113.458 1261.451,1114.405L1265.672,1117.35L1257.134,1123.395ZM1301.957,1113.41L1311.437,1109.728L1306.823,1097.848C1305.9,1095.472 1304.966,1093.135 1304.021,1090.835C1303.076,1088.536 1302.014,1086.203 1300.835,1083.836L1300.97,1083.783C1302.856,1085.83 1304.9,1087.68 1307.1,1089.332C1309.3,1090.984 1311.621,1092.544 1314.061,1094.011L1328.908,1102.942L1338.388,1099.26L1323.853,1061.838L1314.373,1065.52L1318.849,1077.044C1319.772,1079.42 1320.725,1081.807 1321.708,1084.205C1322.692,1086.603 1323.75,1088.926 1324.883,1091.175L1324.748,1091.228C1323.167,1089.7 1321.133,1088.04 1318.645,1086.249C1316.157,1084.458 1313.647,1082.779 1311.115,1081.21L1296.902,1072.306L1287.422,1075.988L1301.957,1113.41ZM1363.894,1094.112L1374.817,1092.493L1370.036,1060.219L1382.396,1058.388L1381.294,1050.95L1345.938,1056.188L1347.04,1063.626L1359.113,1061.838L1363.894,1094.112ZM1425.417,1091.162L1442.03,1093.998C1445.61,1094.609 1448.796,1094.658 1451.586,1094.143C1454.376,1093.628 1456.632,1092.645 1458.353,1091.193C1460.075,1089.742 1461.122,1087.927 1461.494,1085.75C1461.98,1082.902 1461.399,1080.551 1459.75,1078.696C1458.101,1076.842 1456,1075.481 1453.446,1074.614C1454.778,1074.583 1456.137,1074.319 1457.524,1073.823C1458.91,1073.328 1460.133,1072.567 1461.193,1071.541C1462.252,1070.515 1462.918,1069.206 1463.19,1067.615C1463.74,1064.391 1462.742,1061.602 1460.196,1059.25C1457.65,1056.897 1453.966,1055.309 1449.144,1054.486L1432.173,1051.588L1425.417,1091.162ZM1437.524,1085.859L1439.186,1076.123L1443.483,1076.856C1445.822,1077.256 1447.643,1077.955 1448.947,1078.953C1450.25,1079.951 1450.759,1081.288 1450.473,1082.963C1450.165,1084.764 1449.219,1085.917 1447.635,1086.422C1446.05,1086.927 1444.088,1086.98 1441.749,1086.58L1437.524,1085.859ZM1440.398,1069.025L1441.835,1060.608L1446.275,1061.366C1450.476,1062.083 1452.351,1063.761 1451.901,1066.399C1451.679,1067.697 1450.948,1068.671 1449.707,1069.321C1448.466,1069.971 1446.819,1070.121 1444.766,1069.771L1440.398,1069.025ZM1471.577,1099.874L1482.233,1104.331L1488.434,1097.6L1502.642,1103.544L1502.204,1112.685L1512.994,1117.199L1513.273,1073.799L1502.416,1069.258L1471.577,1099.874ZM1493.351,1092.059L1496.828,1088.264C1498.004,1086.96 1499.222,1085.616 1500.483,1084.232C1501.745,1082.849 1502.877,1081.584 1503.881,1080.439L1504.015,1080.495C1503.844,1082.035 1503.693,1083.744 1503.563,1085.624C1503.433,1087.504 1503.332,1089.281 1503.262,1090.955L1503.001,1096.096L1493.351,1092.059ZM1536.369,1133.825C1539.715,1136.223 1542.795,1137.724 1545.609,1138.329C1548.423,1138.933 1550.902,1138.841 1553.046,1138.052C1555.19,1137.263 1556.918,1135.953 1558.229,1134.122C1559.936,1131.74 1560.463,1129.112 1559.81,1126.24C1559.157,1123.368 1557.73,1120.517 1555.528,1117.685L1552.749,1114.205C1551.256,1112.299 1550.242,1110.762 1549.707,1109.595C1549.173,1108.429 1549.289,1107.31 1550.056,1106.239C1550.749,1105.272 1551.778,1104.834 1553.143,1104.924C1554.509,1105.014 1556.097,1105.707 1557.908,1107.005C1559.325,1108.02 1560.669,1109.283 1561.94,1110.795C1563.21,1112.306 1564.366,1113.957 1565.406,1115.748L1571.534,1111.436C1570.665,1109.821 1569.434,1108.089 1567.838,1106.241C1566.243,1104.393 1564.166,1102.552 1561.607,1100.719C1558.576,1098.547 1555.698,1097.138 1552.973,1096.492C1550.248,1095.847 1547.813,1095.879 1545.666,1096.588C1543.52,1097.297 1541.766,1098.601 1540.405,1100.501C1539.094,1102.331 1538.419,1104.147 1538.379,1105.948C1538.34,1107.749 1538.755,1109.561 1539.623,1111.385C1540.49,1113.209 1541.627,1115.094 1543.032,1117.042L1545.295,1119.995C1547.359,1122.519 1548.54,1124.384 1548.837,1125.591C1549.135,1126.797 1549.024,1127.762 1548.504,1128.488C1547.762,1129.524 1546.712,1130.012 1545.354,1129.954C1543.995,1129.895 1542.273,1129.119 1540.187,1127.624C1538.454,1126.383 1536.92,1124.97 1535.583,1123.385C1534.246,1121.8 1532.991,1120.038 1531.818,1118.1L1525.69,1122.412C1526.918,1124.441 1528.433,1126.441 1530.238,1128.413C1532.042,1130.385 1534.086,1132.189 1536.369,1133.825ZM1563.106,1154.354L1583.859,1177.016L1589.311,1172.024L1576.015,1157.505L1583.252,1150.877L1595.125,1163.842L1600.529,1158.893L1588.656,1145.928L1594.718,1140.376L1607.867,1154.734L1613.319,1149.742L1592.712,1127.241L1563.106,1154.354ZM1593.44,1189.207L1600.676,1201.806C1603.039,1205.922 1605.852,1209.305 1609.113,1211.956C1612.375,1214.606 1615.929,1216.167 1619.776,1216.639C1623.623,1217.11 1627.591,1216.172 1631.68,1213.823C1635.364,1211.708 1637.946,1209.08 1639.425,1205.941C1640.904,1202.802 1641.372,1199.308 1640.828,1195.46C1640.283,1191.612 1638.805,1187.588 1636.394,1183.388L1628.254,1169.214L1593.44,1189.207ZM1605.349,1195.101L1627.343,1182.471L1629.332,1185.935C1631.406,1189.547 1632.18,1192.942 1631.654,1196.121C1631.128,1199.299 1629.207,1201.84 1625.892,1203.744C1622.908,1205.458 1620.215,1206.208 1617.815,1205.995C1615.415,1205.782 1613.298,1204.889 1611.464,1203.317C1609.631,1201.746 1608.063,1199.826 1606.76,1197.558L1605.349,1195.101ZM1197.899,1215.654L1203.677,1206.245L1191.513,1198.775L1193.946,1194.814C1195.746,1191.883 1196.986,1188.951 1197.666,1186.016C1198.347,1183.081 1198.284,1180.342 1197.477,1177.801C1196.669,1175.259 1194.944,1173.177 1192.302,1171.554C1188.971,1169.509 1185.537,1169.317 1181.998,1170.98C1178.459,1172.644 1175.245,1175.827 1172.356,1180.532L1163.688,1194.646L1197.899,1215.654ZM1185.269,1194.941L1175.657,1189.038L1177.976,1185.262C1179.218,1183.24 1180.611,1181.865 1182.155,1181.136C1183.699,1180.408 1185.249,1180.522 1186.806,1181.478C1188.58,1182.567 1189.401,1184.051 1189.268,1185.931C1189.136,1187.81 1188.5,1189.679 1187.359,1191.536L1185.269,1194.941ZM1697.134,1384.729C1695.692,1391.905 1693.993,1398.989 1692.047,1405.97L1600.875,1405.97C1603.632,1399.061 1606.036,1391.973 1608.065,1384.729L1697.134,1384.729ZM1689.21,1415.529C1650.954,1536.894 1537.435,1625 1403.5,1625C1270.348,1625 1157.374,1537.921 1118.468,1417.653L1211.2,1417.653C1245.16,1489.799 1318.538,1539.789 1403.5,1539.789C1489.293,1539.789 1563.275,1488.816 1596.785,1415.529L1689.21,1415.529ZM1183.005,1496.521C1185.602,1499.762 1188.18,1502.063 1190.74,1503.423C1193.3,1504.784 1195.723,1505.379 1198.008,1505.207C1200.292,1505.035 1202.313,1504.245 1204.071,1502.837C1206.358,1501.005 1207.569,1498.61 1207.705,1495.653C1207.84,1492.696 1207.221,1489.546 1205.847,1486.201L1204.089,1482.07C1203.153,1479.815 1202.582,1478.05 1202.377,1476.775C1202.172,1475.499 1202.583,1474.45 1203.611,1473.626C1204.539,1472.883 1205.651,1472.742 1206.948,1473.206C1208.245,1473.669 1209.596,1474.778 1211.001,1476.532C1212.101,1477.904 1213.063,1479.496 1213.889,1481.308C1214.714,1483.119 1215.391,1485.034 1215.919,1487.052L1222.997,1484.574C1222.588,1482.773 1221.859,1480.759 1220.81,1478.532C1219.761,1476.305 1218.243,1473.953 1216.258,1471.475C1213.906,1468.539 1211.498,1466.383 1209.035,1465.008C1206.572,1463.632 1204.207,1462.991 1201.942,1463.085C1199.676,1463.179 1197.631,1463.956 1195.808,1465.417C1194.051,1466.825 1192.913,1468.394 1192.394,1470.124C1191.875,1471.855 1191.792,1473.721 1192.144,1475.724C1192.497,1477.726 1193.093,1479.863 1193.932,1482.133L1195.332,1485.612C1196.654,1488.622 1197.298,1490.751 1197.264,1491.999C1197.23,1493.247 1196.865,1494.15 1196.169,1494.708C1195.174,1495.505 1194.028,1495.688 1192.73,1495.256C1191.431,1494.825 1189.973,1493.599 1188.354,1491.579C1187.01,1489.901 1185.903,1488.112 1185.033,1486.211C1184.163,1484.31 1183.419,1482.261 1182.802,1480.064L1175.724,1482.542C1176.369,1484.842 1177.301,1487.194 1178.52,1489.598C1179.738,1492.002 1181.234,1494.31 1183.005,1496.521ZM1516.851,1579.175C1520.919,1577.381 1524.224,1575.007 1526.765,1572.052C1529.307,1569.098 1530.891,1565.788 1531.517,1562.122C1532.143,1558.457 1531.599,1554.68 1529.885,1550.793C1528.119,1546.79 1525.695,1543.773 1522.61,1541.744C1519.526,1539.714 1516.059,1538.632 1512.208,1538.496C1508.357,1538.36 1504.398,1539.189 1500.33,1540.983C1496.262,1542.777 1492.966,1545.17 1490.442,1548.164C1487.918,1551.157 1486.347,1554.497 1485.729,1558.182C1485.112,1561.866 1485.66,1565.652 1487.374,1569.54C1489.122,1573.504 1491.538,1576.501 1494.622,1578.531C1497.706,1580.56 1501.165,1581.623 1504.999,1581.72C1508.833,1581.817 1512.784,1580.969 1516.851,1579.175ZM1514.189,1572.41C1512.266,1573.258 1510.292,1573.594 1508.267,1573.42C1506.241,1573.245 1504.344,1572.456 1502.578,1571.053C1500.811,1569.65 1499.319,1567.568 1498.102,1564.809C1496.268,1560.649 1495.909,1557.082 1497.026,1554.105C1498.143,1551.129 1500.132,1549.01 1502.993,1547.748C1504.96,1546.881 1506.945,1546.539 1508.949,1546.724C1510.952,1546.908 1512.837,1547.702 1514.604,1549.105C1516.371,1550.508 1517.888,1552.648 1519.156,1555.524C1520.973,1559.645 1521.326,1563.169 1520.214,1566.096C1519.103,1569.024 1517.094,1571.129 1514.189,1572.41ZM1382.168,1602.047L1393.306,1602.162L1393.455,1587.697L1398.072,1587.745L1406.13,1602.294L1418.953,1602.426L1408.055,1586.127C1409.281,1585.673 1410.571,1584.985 1411.924,1584.064C1413.277,1583.143 1414.438,1581.923 1415.406,1580.404C1416.375,1578.884 1416.87,1577.041 1416.892,1574.875C1416.916,1572.539 1416.328,1570.419 1415.126,1568.516C1413.924,1566.613 1412.144,1565.076 1409.787,1563.904C1407.429,1562.733 1404.467,1562.129 1400.901,1562.092L1382.582,1561.903L1382.168,1602.047ZM1393.531,1580.37L1393.645,1569.282L1398.115,1569.328C1400.509,1569.353 1402.336,1569.86 1403.596,1570.851C1404.856,1571.841 1405.477,1573.164 1405.46,1574.821C1405.44,1576.775 1404.644,1578.201 1403.071,1579.098C1401.498,1579.995 1399.442,1580.431 1396.902,1580.404L1393.531,1580.37ZM1579.453,1541.199C1582.921,1538.418 1585.503,1535.273 1587.197,1531.763C1588.891,1528.253 1589.569,1524.647 1589.23,1520.944C1588.891,1517.241 1587.392,1513.732 1584.735,1510.418C1581.997,1507.004 1578.877,1504.714 1575.375,1503.548C1571.872,1502.381 1568.242,1502.228 1564.487,1503.089C1560.731,1503.95 1557.119,1505.771 1553.65,1508.552C1550.182,1511.333 1547.614,1514.495 1545.946,1518.038C1544.278,1521.581 1543.62,1525.212 1543.973,1528.932C1544.325,1532.651 1545.83,1536.168 1548.488,1539.483C1551.199,1542.863 1554.305,1545.137 1557.808,1546.303C1561.311,1547.469 1564.927,1547.606 1568.656,1546.712C1572.385,1545.818 1575.984,1543.98 1579.453,1541.199ZM1575.137,1535.348C1573.498,1536.662 1571.677,1537.496 1569.675,1537.849C1567.672,1538.203 1565.637,1537.929 1563.568,1537.028C1561.5,1536.128 1559.522,1534.501 1557.635,1532.148C1554.792,1528.601 1553.526,1525.246 1553.838,1522.083C1554.151,1518.919 1555.527,1516.359 1557.966,1514.403C1559.643,1513.058 1561.473,1512.217 1563.457,1511.879C1565.44,1511.541 1567.466,1511.822 1569.534,1512.723C1571.603,1513.624 1573.621,1515.3 1575.587,1517.753C1578.404,1521.266 1579.653,1524.58 1579.333,1527.696C1579.013,1530.811 1577.614,1533.362 1575.137,1535.348ZM1326.053,1591.861L1356.282,1598.722L1357.918,1591.514L1338.552,1587.118L1340.724,1577.548L1358.018,1581.473L1359.64,1574.327L1342.346,1570.402L1344.165,1562.385L1363.318,1566.732L1364.954,1559.524L1334.939,1552.711L1326.053,1591.861ZM1442.955,1599.899L1453.886,1597.758L1450.885,1582.437L1467.857,1579.112L1466.448,1571.921L1449.476,1575.245L1447.589,1565.615L1466.144,1561.981L1464.723,1554.727L1435.237,1560.502L1442.955,1599.899ZM1616.969,1505.053L1625.713,1493.291C1628.569,1489.449 1630.573,1485.49 1631.723,1481.414C1632.874,1477.339 1632.904,1473.435 1631.814,1469.703C1630.725,1465.97 1628.287,1462.698 1624.503,1459.884C1621.094,1457.35 1617.649,1456.037 1614.17,1455.947C1610.691,1455.856 1607.286,1456.84 1603.955,1458.9C1600.625,1460.959 1597.502,1463.949 1594.587,1467.87L1584.75,1481.102L1616.969,1505.053ZM1617.682,1491.704L1597.328,1476.573L1599.733,1473.338C1602.239,1469.966 1605.061,1467.879 1608.199,1467.077C1611.336,1466.274 1614.439,1467.013 1617.508,1469.294C1620.269,1471.347 1622.028,1473.522 1622.782,1475.818C1623.537,1478.114 1623.553,1480.424 1622.831,1482.748C1622.109,1485.072 1620.961,1487.293 1619.387,1489.41L1617.682,1491.704ZM1228.927,1542.297C1239.076,1550.336 1247.645,1549.943 1254.635,1541.118L1269.512,1522.336L1260.78,1515.42L1245.389,1534.851C1243.833,1536.816 1242.033,1538.046 1239.989,1538.541C1237.946,1539.036 1235.775,1538.373 1233.477,1536.553C1231.141,1534.703 1229.939,1532.68 1229.87,1530.485C1229.801,1528.29 1230.69,1526.027 1232.537,1523.695L1247.453,1504.864L1238.722,1497.947L1224.043,1516.48C1220.402,1521.075 1219.1,1525.571 1220.136,1529.969C1221.171,1534.366 1224.102,1538.475 1228.927,1542.297ZM1270.141,1569.222L1280.256,1573.887L1286.234,1560.925L1290.493,1562.889C1293.642,1564.342 1296.726,1565.238 1299.744,1565.577C1302.762,1565.916 1305.492,1565.538 1307.934,1564.442C1310.376,1563.346 1312.247,1561.39 1313.545,1558.574C1315.182,1555.025 1314.953,1551.586 1312.857,1548.256C1310.76,1544.927 1307.184,1542.096 1302.126,1539.764L1286.954,1532.767L1270.141,1569.222ZM1289.303,1554.27L1294.026,1544.028L1298.086,1545.9C1300.259,1546.903 1301.805,1548.13 1302.722,1549.583C1303.64,1551.035 1303.716,1552.59 1302.951,1554.249C1302.079,1556.139 1300.695,1557.127 1298.8,1557.212C1296.905,1557.297 1294.959,1556.879 1292.963,1555.958L1289.303,1554.27ZM1115.553,1408.094C1113.651,1401.459 1111.972,1394.73 1110.525,1387.915L1199.854,1387.915C1201.899,1394.793 1204.283,1401.526 1206.986,1408.094L1115.553,1408.094Z" style="fill:rgb(172,139,73);"/>
            </g>
        </g>
    </g>
</svg>
