<?xml version="1.0" encoding="UTF-8" standalone="no"?>
<!DOCTYPE svg PUBLIC "-//W3C//DTD SVG 1.1//EN" "http://www.w3.org/Graphics/SVG/1.1/DTD/svg11.dtd">
<svg width="100%" height="100%" viewBox="0 0 1678 248" version="1.1" xmlns="http://www.w3.org/2000/svg" xmlns:xlink="http://www.w3.org/1999/xlink" xml:space="preserve" xmlns:serif="http://www.serif.com/" style="fill-rule:evenodd;clip-rule:evenodd;stroke-linejoin:round;stroke-miterlimit:2;">
    <g transform="matrix(1,0,0,1,0,-180)">
        <rect id="Artboard9" x="0" y="180" width="1678" height="248" style="fill:none;"/>
        <g id="Artboard91" serif:id="Artboard9">
            <g transform="matrix(12.846025,0,0,12.846025,-3745.00214,-13811.926906)" fill="#ac8b49">
                <g transform="matrix(1,0,0,1,0.622761,0)">
                    <path d="M294.407,1106.428L294.407,1091.308L300.426,1091.308C302.432,1091.308 304.03,1091.712 305.218,1092.52C306.406,1093.328 307,1094.468 307,1095.94C307,1097.108 306.683,1098.072 306.049,1098.832C305.416,1099.592 304.58,1100.152 303.541,1100.512C302.503,1100.872 301.359,1101.052 300.109,1101.052L298.42,1101.052L298.42,1106.428L294.407,1106.428ZM298.42,1098.292L299.872,1098.292C300.664,1098.292 301.363,1098.128 301.97,1097.8C302.578,1097.472 302.881,1096.916 302.881,1096.132C302.881,1095.444 302.622,1094.924 302.102,1094.572C301.583,1094.22 300.892,1094.044 300.03,1094.044L298.42,1094.044L298.42,1098.292Z" style="fill-rule:nonzero;"/>
                </g>
                <g transform="matrix(1,0,0,1,1.323367,0)">
                    <path d="M309.112,1106.428L309.112,1091.308L315.712,1091.308C316.996,1091.308 318.066,1091.524 318.919,1091.956C319.773,1092.388 320.42,1092.96 320.86,1093.672C321.3,1094.384 321.52,1095.18 321.52,1096.06C321.52,1096.876 321.348,1097.572 321.005,1098.148C320.662,1098.724 320.248,1099.188 319.764,1099.54C319.28,1099.892 318.818,1100.156 318.378,1100.332L322.364,1106.428L317.744,1106.428L314.788,1100.98L313.124,1100.98L313.124,1106.428L309.112,1106.428ZM313.124,1098.22L314.339,1098.22C315.254,1098.22 315.993,1098.048 316.556,1097.704C317.12,1097.36 317.401,1096.82 317.401,1096.084C317.401,1095.46 317.172,1094.964 316.715,1094.596C316.257,1094.228 315.597,1094.044 314.735,1094.044L313.124,1094.044L313.124,1098.22Z" style="fill-rule:nonzero;"/>
                </g>
                <g transform="matrix(1,0,0,1,1.323367,0)">
                    <path d="M331.657,1106.692C330.056,1106.692 328.63,1106.384 327.38,1105.768C326.131,1105.152 325.145,1104.26 324.424,1103.092C323.702,1101.924 323.341,1100.524 323.341,1098.892C323.341,1097.292 323.711,1095.904 324.45,1094.728C325.189,1093.552 326.192,1092.64 327.46,1091.992C328.727,1091.344 330.161,1091.02 331.763,1091.02C333.364,1091.02 334.79,1091.336 336.04,1091.968C337.289,1092.6 338.275,1093.5 338.996,1094.668C339.718,1095.836 340.079,1097.244 340.079,1098.892C340.079,1100.492 339.709,1101.876 338.97,1103.044C338.231,1104.212 337.228,1105.112 335.96,1105.744C334.693,1106.376 333.259,1106.692 331.657,1106.692ZM331.763,1103.956C332.907,1103.956 333.875,1103.536 334.667,1102.696C335.459,1101.856 335.855,1100.588 335.855,1098.892C335.855,1097.708 335.666,1096.74 335.287,1095.988C334.909,1095.236 334.403,1094.676 333.769,1094.308C333.136,1093.94 332.432,1093.756 331.657,1093.756C330.531,1093.756 329.567,1094.184 328.766,1095.04C327.966,1095.896 327.565,1097.18 327.565,1098.892C327.565,1100.028 327.754,1100.972 328.133,1101.724C328.511,1102.476 329.022,1103.036 329.664,1103.404C330.306,1103.772 331.006,1103.956 331.763,1103.956Z" style="fill-rule:nonzero;"/>
                </g>
                <g transform="matrix(1,0,0,1,-0.233535,0)">
                    <path d="M346.784,1106.428L340.897,1091.308L345.148,1091.308L347.339,1097.62C347.603,1098.388 347.884,1099.248 348.184,1100.2C348.483,1101.152 348.747,1102.108 348.976,1103.068L349.055,1103.068C349.284,1102.108 349.543,1101.152 349.834,1100.2C350.124,1099.248 350.41,1098.38 350.692,1097.596L352.856,1091.308L356.975,1091.308L351.246,1106.428L346.784,1106.428Z" style="fill-rule:nonzero;"/>
                </g>
                <g transform="matrix(1,0,0,1,0.233535,0)">
                    <path d="M358.453,1106.428L358.453,1091.308L369.541,1091.308L369.541,1094.092L362.466,1094.092L362.466,1097.188L368.855,1097.188L368.855,1099.948L362.466,1099.948L362.466,1103.644L369.62,1103.644L369.62,1106.428L358.453,1106.428Z" style="fill-rule:nonzero;"/>
                </g>
                <g transform="matrix(1,0,0,1,0.233535,0)">
                    <path d="M380.048,1106.692C378.376,1106.692 376.863,1106.392 375.508,1105.792C374.152,1105.192 373.079,1104.312 372.287,1103.152C371.495,1101.992 371.099,1100.572 371.099,1098.892C371.099,1097.196 371.495,1095.764 372.287,1094.596C373.079,1093.428 374.152,1092.54 375.508,1091.932C376.863,1091.324 378.376,1091.02 380.048,1091.02C381.087,1091.02 382.02,1091.1 382.847,1091.26C383.674,1091.42 384.404,1091.636 385.038,1091.908L384.22,1094.308C383.621,1094.036 382.992,1093.84 382.332,1093.72C381.672,1093.6 381.034,1093.54 380.418,1093.54C379.485,1093.54 378.632,1093.728 377.857,1094.104C377.083,1094.48 376.467,1095.064 376.009,1095.856C375.552,1096.648 375.323,1097.66 375.323,1098.892C375.323,1100.572 375.736,1101.868 376.564,1102.78C377.391,1103.692 378.561,1104.148 380.075,1104.148C380.867,1104.148 381.43,1104.084 381.764,1103.956L381.764,1100.668L379.151,1100.668L379.151,1097.98L385.619,1097.98L385.619,1105.756C384.932,1106.012 384.123,1106.232 383.19,1106.416C382.257,1106.6 381.21,1106.692 380.048,1106.692Z" style="fill-rule:nonzero;"/>
                </g>
                <g transform="matrix(1,0,0,1,-0.467071,0)">
                    <path d="M386.886,1106.428L392.932,1091.308L397.208,1091.308L403.201,1106.428L398.951,1106.428L397.816,1103.188L392.219,1103.188L391.084,1106.428L386.886,1106.428ZM393.09,1100.548L396.892,1100.548L396.258,1098.724C396.047,1098.132 395.831,1097.5 395.611,1096.828C395.391,1096.156 395.202,1095.54 395.044,1094.98L394.991,1094.98C394.815,1095.524 394.612,1096.128 394.384,1096.792C394.155,1097.456 393.935,1098.1 393.724,1098.724L393.09,1100.548Z" style="fill-rule:nonzero;"/>
                </g>
                <g transform="matrix(1,0,0,1,-0.544916,0)">
                    <path d="M404.996,1106.428L404.996,1091.308L408.692,1091.308L412.336,1096.372C412.987,1097.268 413.616,1098.2 414.223,1099.168C414.83,1100.136 415.301,1100.996 415.636,1101.748L415.688,1101.748C415.6,1100.804 415.548,1099.844 415.53,1098.868C415.512,1097.892 415.504,1096.924 415.504,1095.964L415.504,1091.308L419.2,1091.308L419.2,1106.428L415.504,1106.428L411.649,1101.268C411.016,1100.42 410.435,1099.556 409.907,1098.676C409.379,1097.796 408.93,1096.868 408.56,1095.892L408.508,1095.892C408.596,1096.884 408.648,1097.848 408.666,1098.784C408.684,1099.72 408.692,1100.668 408.692,1101.628L408.692,1106.428L404.996,1106.428Z" style="fill-rule:nonzero;"/>
                </g>
            </g>
        </g>
    </g>
</svg>
