<?xml version="1.0" encoding="UTF-8" standalone="no"?>
<!DOCTYPE svg PUBLIC "-//W3C//DTD SVG 1.1//EN" "http://www.w3.org/Graphics/SVG/1.1/DTD/svg11.dtd">
<svg width="100%" height="100%" viewBox="0 0 1465 472" preserveAspectRatio="none" version="1.1" xmlns="http://www.w3.org/2000/svg" xmlns:xlink="http://www.w3.org/1999/xlink" xml:space="preserve" xmlns:serif="http://www.serif.com/" style="fill-rule:evenodd;clip-rule:evenodd;stroke-linejoin:round;stroke-miterlimit:2;">
    <g transform="matrix(1,0,0,1,-148,-1697)">
        <g id="Artboard1" transform="matrix(0.961286,0,0,0.838366,25.916667,306.150977)">
            <rect x="127" y="1659" width="1524" height="563" style="fill:none;"/>
            <clipPath id="_clip1">
                <rect x="127" y="1659" width="1524" height="563"/>
            </clipPath>
            <g clip-path="url(#_clip1)">
                <g transform="matrix(1.040273,0,0,1.192797,-26.96041,-377.103814)">
                    <rect x="148" y="1699" width="134.167" height="485" style="fill:rgb(172,139,73);"/>
                </g>
                <g transform="matrix(1.040273,0,0,1.192797,150.92628,-377.103814)">
                    <rect x="148" y="1699" width="134.167" height="485" style="fill:rgb(172,139,73);"/>
                </g>
                <g transform="matrix(1.040273,0,0,1.192797,1177.611831,-377.103814)">
                    <rect x="148" y="1699" width="134.167" height="485" style="fill:rgb(172,139,73);"/>
                </g>
                <g transform="matrix(1.040273,0,0,1.192797,1357.579066,-377.103814)">
                    <rect x="148" y="1699" width="134.167" height="485" style="fill:rgb(172,139,73);"/>
                </g>
                <g transform="matrix(1.031319,0,0,1.200175,-22.170886,-393.217635)">
                    <rect x="534.911" y="1699" width="697.089" height="485" style="fill:rgb(97,99,64);"/>
                </g>
            </g>
        </g>
    </g>
</svg>
