<?xml version="1.0" encoding="UTF-8" standalone="no"?>
<!DOCTYPE svg PUBLIC "-//W3C//DTD SVG 1.1//EN" "http://www.w3.org/Graphics/SVG/1.1/DTD/svg11.dtd">
<svg width="100%" height="100%" viewBox="0 0 328 328" version="1.1" xmlns="http://www.w3.org/2000/svg" xmlns:xlink="http://www.w3.org/1999/xlink" xml:space="preserve" xmlns:serif="http://www.serif.com/" style="fill-rule:evenodd;clip-rule:evenodd;stroke-linejoin:round;stroke-miterlimit:2;">
    <g transform="matrix(1,0,0,1,-1464,-836)">
        <g id="Artboard6" transform="matrix(1.136458,0,0,1.136458,-174.816408,726.9)">
            <rect x="1442.038" y="96" width="288" height="288" style="fill:none;"/>
            <g transform="matrix(0.911871,0,0,0.911871,53.638709,-766.249875)">
                <path d="M1561.297,1196.968C1541.069,1171.215 1529,1138.756 1529,1103.5C1529,1019.885 1596.885,952 1680.5,952C1764.115,952 1832,1019.885 1832,1103.5C1832,1138.756 1819.931,1171.215 1799.703,1196.968L1561.297,1196.968ZM1732.267,999.253L1728,1007.371L1718.96,1008.921L1725.362,1015.489L1724.043,1024.565L1732.267,1020.506L1740.492,1024.565L1739.173,1015.489L1745.575,1008.921L1736.535,1007.371L1732.267,999.253ZM1680.159,977.059L1671.771,992.455L1654.004,995.395L1666.586,1007.851L1663.994,1025.064L1680.159,1017.366L1696.324,1025.064L1693.732,1007.851L1706.315,995.395L1688.548,992.455L1680.159,977.059ZM1627.086,999.253L1622.818,1007.371L1613.779,1008.921L1620.18,1015.489L1618.862,1024.565L1627.086,1020.506L1635.31,1024.565L1633.991,1015.489L1640.393,1008.921L1631.354,1007.371L1627.086,999.253ZM1567.093,1092.456L1580.2,1092.456L1585.017,1072.789C1585.596,1070.352 1586.175,1067.854 1586.754,1065.295C1587.333,1062.736 1587.859,1060.14 1588.333,1057.508L1588.491,1057.508C1589.018,1060.14 1589.57,1062.748 1590.149,1065.331C1590.728,1067.914 1591.334,1070.425 1591.965,1072.862L1596.94,1092.456L1610.205,1092.456L1622.286,1046.395L1610.205,1046.395L1605.942,1065.624C1605.415,1068.012 1604.889,1070.486 1604.362,1073.044C1603.836,1075.603 1603.388,1078.248 1603.02,1080.977L1602.862,1080.977C1602.494,1078.248 1602.059,1075.628 1601.559,1073.118C1601.059,1070.607 1600.493,1068.109 1599.862,1065.624L1595.045,1046.395L1582.174,1046.395L1577.437,1065.624C1576.858,1068.061 1576.305,1070.559 1575.778,1073.118C1575.252,1075.677 1574.778,1078.296 1574.357,1080.977L1574.199,1080.977C1573.568,1075.811 1572.646,1070.693 1571.436,1065.624L1567.014,1046.395L1554.775,1046.395L1567.093,1092.456ZM1623.708,1092.456L1657.108,1092.456L1657.108,1083.975L1635.71,1083.975L1635.71,1072.715L1654.818,1072.715L1654.818,1064.308L1635.71,1064.308L1635.71,1054.876L1656.871,1054.876L1656.871,1046.395L1623.708,1046.395L1623.708,1092.456ZM1660.188,1092.456L1672.19,1092.456L1672.19,1046.395L1660.188,1046.395L1660.188,1092.456ZM1702.353,1093.26C1705.827,1093.26 1708.959,1092.98 1711.749,1092.419C1714.539,1091.859 1716.961,1091.188 1719.014,1090.409L1719.014,1066.72L1699.668,1066.72L1699.668,1074.909L1707.485,1074.909L1707.485,1084.925C1706.485,1085.315 1704.801,1085.51 1702.432,1085.51C1697.905,1085.51 1694.404,1084.121 1691.93,1081.343C1689.456,1078.564 1688.219,1074.616 1688.219,1069.499C1688.219,1065.745 1688.903,1062.663 1690.272,1060.25C1691.64,1057.837 1693.483,1056.058 1695.799,1054.913C1698.115,1053.767 1700.668,1053.195 1703.458,1053.195C1705.301,1053.195 1707.209,1053.377 1709.183,1053.743C1711.157,1054.108 1713.039,1054.706 1714.829,1055.534L1717.276,1048.223C1715.381,1047.394 1713.197,1046.736 1710.723,1046.249C1708.249,1045.762 1705.459,1045.518 1702.353,1045.518C1697.352,1045.518 1692.825,1046.444 1688.771,1048.296C1684.718,1050.148 1681.507,1052.853 1679.138,1056.412C1676.769,1059.97 1675.585,1064.332 1675.585,1069.499C1675.585,1074.616 1676.769,1078.942 1679.138,1082.476C1681.507,1086.01 1684.718,1088.69 1688.771,1090.518C1692.825,1092.346 1697.352,1093.26 1702.353,1093.26ZM1723.198,1092.456L1735.2,1092.456L1735.2,1072.935L1752.493,1072.935L1752.493,1092.456L1764.495,1092.456L1764.495,1046.395L1752.493,1046.395L1752.493,1064.308L1735.2,1064.308L1735.2,1046.395L1723.198,1046.395L1723.198,1092.456ZM1778.945,1092.456L1790.947,1092.456L1790.947,1055.022L1804.528,1055.022L1804.528,1046.395L1765.679,1046.395L1765.679,1055.022L1778.945,1055.022L1778.945,1092.456ZM1563.253,1172.735L1606.498,1172.735L1606.498,1160.009L1579.645,1160.009L1579.645,1104.794L1563.253,1104.794L1563.253,1172.735ZM1644.782,1173.921C1651.324,1173.921 1657.184,1172.501 1662.36,1169.661C1667.537,1166.821 1671.635,1162.777 1674.654,1157.529C1677.674,1152.281 1679.183,1146.062 1679.183,1138.872C1679.183,1131.467 1677.71,1125.14 1674.762,1119.892C1671.814,1114.644 1667.788,1110.6 1662.684,1107.76C1657.579,1104.92 1651.756,1103.5 1645.213,1103.5C1638.671,1103.5 1632.811,1104.956 1627.635,1107.868C1622.459,1110.779 1618.361,1114.877 1615.341,1120.162C1612.321,1125.446 1610.812,1131.683 1610.812,1138.872C1610.812,1146.205 1612.285,1152.496 1615.233,1157.745C1618.181,1162.993 1622.207,1167.001 1627.311,1169.769C1632.416,1172.537 1638.239,1173.921 1644.782,1173.921ZM1645.213,1161.627C1642.122,1161.627 1639.264,1160.8 1636.64,1159.147C1634.016,1157.493 1631.931,1154.977 1630.385,1151.598C1628.839,1148.219 1628.066,1143.977 1628.066,1138.872C1628.066,1131.179 1629.702,1125.41 1632.973,1121.564C1636.244,1117.717 1640.181,1115.794 1644.782,1115.794C1647.945,1115.794 1650.821,1116.621 1653.409,1118.274C1655.997,1119.928 1658.064,1122.444 1659.61,1125.823C1661.156,1129.202 1661.929,1133.552 1661.929,1138.872C1661.929,1146.493 1660.311,1152.191 1657.076,1155.965C1653.841,1159.74 1649.886,1161.627 1645.213,1161.627ZM1711.213,1173.921C1717.324,1173.921 1722.338,1172.95 1726.257,1171.009C1730.175,1169.068 1733.087,1166.498 1734.992,1163.298C1736.897,1160.099 1737.85,1156.594 1737.85,1152.784C1737.85,1147.823 1736.214,1143.689 1732.943,1140.382C1729.672,1137.075 1725.484,1134.559 1720.379,1132.833L1714.016,1130.784C1710.566,1129.634 1708.013,1128.519 1706.36,1127.441C1704.706,1126.363 1703.879,1124.709 1703.879,1122.48C1703.879,1120.467 1704.742,1118.85 1706.468,1117.627C1708.193,1116.405 1710.709,1115.794 1714.016,1115.794C1716.605,1115.794 1719.319,1116.207 1722.159,1117.034C1724.998,1117.861 1727.82,1118.993 1730.624,1120.431L1734.291,1108.461C1731.846,1107.095 1728.863,1105.926 1725.34,1104.956C1721.817,1103.985 1717.719,1103.5 1713.046,1103.5C1707.51,1103.5 1702.819,1104.399 1698.973,1106.196C1695.126,1107.993 1692.214,1110.438 1690.237,1113.529C1688.26,1116.621 1687.272,1120.144 1687.272,1124.098C1687.272,1127.908 1688.027,1131.072 1689.536,1133.588C1691.046,1136.104 1693.113,1138.189 1695.737,1139.843C1698.361,1141.496 1701.363,1142.97 1704.742,1144.264L1710.026,1146.098C1714.699,1147.536 1717.737,1148.937 1719.139,1150.303C1720.541,1151.669 1721.242,1153.107 1721.242,1154.617C1721.242,1156.774 1720.397,1158.482 1718.708,1159.74C1717.018,1160.998 1714.268,1161.627 1710.458,1161.627C1707.294,1161.627 1704.221,1161.196 1701.237,1160.333C1698.254,1159.47 1695.216,1158.284 1692.125,1156.774L1688.458,1168.744C1691.693,1170.326 1695.252,1171.584 1699.134,1172.519C1703.017,1173.454 1707.043,1173.921 1711.213,1173.921ZM1769.879,1173.921C1775.99,1173.921 1781.004,1172.95 1784.923,1171.009C1788.841,1169.068 1791.753,1166.498 1793.658,1163.298C1795.563,1160.099 1796.516,1156.594 1796.516,1152.784C1796.516,1147.823 1794.88,1143.689 1791.609,1140.382C1788.338,1137.075 1784.15,1134.559 1779.045,1132.833L1772.683,1130.784C1769.232,1129.634 1766.679,1128.519 1765.026,1127.441C1763.372,1126.363 1762.545,1124.709 1762.545,1122.48C1762.545,1120.467 1763.408,1118.85 1765.134,1117.627C1766.859,1116.405 1769.375,1115.794 1772.683,1115.794C1775.271,1115.794 1777.985,1116.207 1780.825,1117.034C1783.665,1117.861 1786.486,1118.993 1789.29,1120.431L1792.957,1108.461C1790.512,1107.095 1787.529,1105.926 1784.006,1104.956C1780.483,1103.985 1776.385,1103.5 1771.712,1103.5C1766.176,1103.5 1761.485,1104.399 1757.639,1106.196C1753.792,1107.993 1750.881,1110.438 1748.903,1113.529C1746.926,1116.621 1745.938,1120.144 1745.938,1124.098C1745.938,1127.908 1746.693,1131.072 1748.202,1133.588C1749.712,1136.104 1751.779,1138.189 1754.403,1139.843C1757.028,1141.496 1760.029,1142.97 1763.408,1144.264L1768.692,1146.098C1773.366,1147.536 1776.403,1148.937 1777.805,1150.303C1779.207,1151.669 1779.908,1153.107 1779.908,1154.617C1779.908,1156.774 1779.063,1158.482 1777.374,1159.74C1775.684,1160.998 1772.934,1161.627 1769.124,1161.627C1765.96,1161.627 1762.887,1161.196 1759.903,1160.333C1756.92,1159.47 1753.882,1158.284 1750.791,1156.774L1747.124,1168.744C1750.359,1170.326 1753.918,1171.584 1757.8,1172.519C1761.683,1173.454 1765.709,1173.921 1769.879,1173.921ZM1790.673,1207.449C1786.535,1211.833 1782.138,1215.97 1777.508,1219.836L1583.492,1219.836C1578.862,1215.97 1574.465,1211.833 1570.327,1207.449L1790.673,1207.449ZM1763.369,1230.317C1739.55,1245.922 1711.077,1255 1680.5,1255C1649.923,1255 1621.45,1245.922 1597.631,1230.317L1763.369,1230.317Z" style="fill:rgb(172,139,73);"/>
            </g>
        </g>
    </g>
</svg>
